<svg width="206" height="213" viewBox="0 0 206 213" fill="none" xmlns="http://www.w3.org/2000/svg">
<g filter="url(#filter0_d)">
<path d="M86.0872 116.436C86.409 115.081 85.5602 113.724 84.1913 113.405C82.8224 113.086 81.4518 113.927 81.1299 115.282C80.8081 116.637 81.6569 117.994 83.0258 118.313C84.3947 118.631 85.7653 117.791 86.0872 116.436Z" fill="white"/>
<path d="M154.857 117.632C155.851 116.647 155.851 115.051 154.857 114.067C153.862 113.082 152.25 113.082 151.256 114.067C150.261 115.051 150.261 116.647 151.256 117.632C152.25 118.616 153.862 118.616 154.857 117.632Z" fill="white"/>
<path d="M147.808 167.254C127.505 173.105 107.67 171.406 88.5875 162.45C54.1661 146.299 35.0064 108.522 43.1093 70.9335C47.1256 52.3076 57.5235 35.6294 72.541 23.7255C87.5584 11.8216 106.271 5.42421 125.509 5.61761C78.0983 -5.8928 23.5085 21.1325 9.18576 75.3645C-4.9254 128.787 29.1684 183.65 85.2158 194.225C137.969 204.186 182.294 170.796 195.2 131.933C183.772 149.435 168.059 161.415 147.808 167.254Z" fill="white"/>
<path d="M70.9316 146.62V170.903H96.2904V146.62H70.9316ZM89.2477 167.475H77.9743V159.403C77.9743 155.127 83.6162 150.318 83.6162 150.318C83.6162 150.318 89.2606 155.127 89.2606 159.403L89.2477 167.475Z" fill="white"/>
<path d="M140.383 146.62V170.903H165.734V146.62H140.383ZM158.699 167.475H147.416V159.403C147.416 155.127 153.058 150.318 153.058 150.318C153.058 150.318 158.702 155.127 158.702 159.403L158.699 167.475Z" fill="white"/>
<path d="M120.131 85.7147C121.125 84.7303 121.125 83.1343 120.131 82.1499C119.136 81.1655 117.524 81.1655 116.53 82.1499C115.535 83.1343 115.535 84.7303 116.53 85.7147C117.524 86.699 119.136 86.699 120.131 85.7147Z" fill="white"/>
<path d="M142.824 128.878C144.728 126.013 148.414 118.543 142.664 109.752C135.288 98.4768 124.704 94.9729 121.693 91.1727C118.683 87.3725 118.339 84.8646 118.339 84.8646C118.339 84.8646 117.989 87.3725 114.986 91.1727C111.983 94.9729 101.391 98.4768 94.0151 109.752C88.2674 118.543 91.9513 126.013 93.8577 128.878H142.824Z" fill="white"/>
<path d="M94.7761 131.386V170.903H108.307V152.678C108.307 150.511 109.177 148.432 110.725 146.899C112.273 145.367 114.373 144.506 116.562 144.506H120.101C122.291 144.506 124.39 145.367 125.939 146.899C127.487 148.432 128.356 150.511 128.356 152.678V170.903H141.885V131.386H94.7761Z" fill="white"/>
<path d="M95.973 131.386H92.1241V128.878H94.1337C90.5969 124.644 86.7092 122.859 85.4142 120.961C83.7967 118.584 83.6084 117.01 83.6084 117.01C83.6084 117.01 83.42 118.584 81.8026 120.961C80.1851 123.339 74.4864 125.538 70.5188 132.602C67.663 137.679 69.1309 142.051 70.1808 144.112H97.0385C98.0884 142.069 99.5537 137.679 96.7005 132.602C96.4632 132.181 96.2207 131.776 95.973 131.386Z" fill="white"/>
<path d="M166.49 144.11C167.54 142.067 169.005 137.677 166.152 132.599C162.182 125.535 156.486 123.339 154.866 120.959C153.246 118.579 153.06 117.008 153.06 117.008C153.06 117.008 152.872 118.581 151.254 120.959C149.964 122.859 146.072 124.644 142.537 128.876H144.531V131.384H140.693C140.435 131.772 140.2 132.175 139.965 132.597C137.11 137.674 138.577 142.046 139.627 144.107L166.49 144.11Z" fill="white"/>
</g>
<defs>
<filter id="filter0_d" x="-3" y="0" width="216" height="216" filterUnits="userSpaceOnUse" color-interpolation-filters="sRGB">
<feFlood flood-opacity="0" result="BackgroundImageFix"/>
<feColorMatrix in="SourceAlpha" type="matrix" values="0 0 0 0 0 0 0 0 0 0 0 0 0 0 0 0 0 0 127 0"/>
<feOffset dx="2" dy="8"/>
<feGaussianBlur stdDeviation="4"/>
<feColorMatrix type="matrix" values="0 0 0 0 0 0 0 0 0 0 0 0 0 0 0 0 0 0 0.25 0"/>
<feBlend mode="normal" in2="BackgroundImageFix" result="effect1_dropShadow"/>
<feBlend mode="normal" in="SourceGraphic" in2="effect1_dropShadow" result="shape"/>
</filter>
</defs>
</svg>
