<svg width="92" height="92" viewBox="0 0 92 92" fill="none" xmlns="http://www.w3.org/2000/svg">
<path d="M42.5525 32.5506C42.5525 32.7176 42.5525 32.9682 42.5525 33.3024C42.4976 33.6365 42.4701 33.8871 42.4701 34.0541L42.5525 69.7212H42.4701C42.4151 73.118 41.1781 76.0137 38.7591 78.4082C36.3401 80.8027 33.4538 82 30.1001 82V52.18C27.2963 53.4608 24.355 54.1012 21.2763 54.1012C15.3937 54.1012 10.3632 52.0129 6.18496 47.8365C2.06165 43.6043 0 38.509 0 32.5506C0 26.6478 2.06165 21.5804 6.18496 17.3482C10.3632 13.1161 15.3937 11 21.2763 11C27.1588 11 32.1618 13.1161 36.2851 17.3482C40.4634 21.5804 42.5525 26.6478 42.5525 32.5506ZM30.1826 32.5506C30.1826 30.1004 29.303 27.9843 27.5437 26.2024C25.8394 24.4204 23.7503 23.5294 21.2763 23.5294C18.8023 23.5294 16.6856 24.4204 14.9264 26.2024C13.2221 27.9843 12.3699 30.1004 12.3699 32.5506C12.3699 35.0565 13.2221 37.2004 14.9264 38.9824C16.6856 40.7086 18.8023 41.5718 21.2763 41.5718C23.7503 41.5718 25.8394 40.7086 27.5437 38.9824C29.303 37.2004 30.1826 35.0565 30.1826 32.5506Z" fill="#22BB9F"/>
<path d="M92 32.5506C92 32.7176 92 32.9682 92 33.3024C91.945 33.6365 91.9175 33.8871 91.9175 34.0541L92 69.7212H91.9175C91.8626 73.118 90.6256 76.0137 88.2066 78.4082C85.7876 80.8027 82.9012 82 79.5476 82V52.18C76.7438 53.4608 73.8025 54.1012 70.7237 54.1012C64.8412 54.1012 59.8107 52.0129 55.6324 47.8365C51.5091 43.6043 49.4475 38.509 49.4475 32.5506C49.4475 26.6478 51.5091 21.5804 55.6324 17.3482C59.8107 13.1161 64.8412 11 70.7237 11C76.6063 11 81.6093 13.1161 85.7326 17.3482C89.9109 21.5804 92 26.6478 92 32.5506ZM79.6301 32.5506C79.6301 30.1004 78.7504 27.9843 76.9912 26.2024C75.2869 24.4204 73.1977 23.5294 70.7237 23.5294C68.2498 23.5294 66.1331 24.4204 64.3738 26.2024C62.6695 27.9843 61.8174 30.1004 61.8174 32.5506C61.8174 35.0565 62.6695 37.2004 64.3738 38.9824C66.1331 40.7086 68.2498 41.5718 70.7237 41.5718C73.1977 41.5718 75.2869 40.7086 76.9912 38.9824C78.7504 37.2004 79.6301 35.0565 79.6301 32.5506Z" fill="#22BB9F"/>
</svg>
