<svg width="92" height="92" viewBox="0 0 92 92" fill="none" xmlns="http://www.w3.org/2000/svg">
<path d="M53.4242 6.83335C53.4242 9.68683 51.111 12 48.2575 12C45.404 12 43.0908 9.68683 43.0908 6.83335C43.0908 3.97988 45.404 1.66669 48.2575 1.66669C51.111 1.66669 53.4242 3.97988 53.4242 6.83335Z" stroke="#22BB9F" stroke-width="2"/>
<path d="M33.1003 16.6227C33.1003 19.0513 31.1315 21.02 28.7029 21.02C26.2744 21.02 24.3056 19.0513 24.3056 16.6227C24.3056 14.1941 26.2744 12.2253 28.7029 12.2253C31.1315 12.2253 33.1003 14.1941 33.1003 16.6227Z" stroke="#22BB9F" stroke-width="2"/>
<path d="M27.4388 25.9893C27.4388 28.4179 25.4701 30.3867 23.0415 30.3867C20.6129 30.3867 18.6442 28.4179 18.6442 25.9893C18.6442 23.5608 20.6129 21.592 23.0415 21.592C25.4701 21.592 27.4388 23.5608 27.4388 25.9893Z" stroke="#22BB9F" stroke-width="2"/>
<path d="M31.7775 35.8854C31.7775 38.314 29.8088 40.2827 27.3802 40.2827C24.9516 40.2827 22.9828 38.314 22.9828 35.8854C22.9828 33.4568 24.9516 31.488 27.3802 31.488C29.8088 31.488 31.7775 33.4568 31.7775 35.8854Z" stroke="#22BB9F" stroke-width="2"/>
<path d="M35.4816 45.992C35.4816 48.4206 33.5128 50.3893 31.0842 50.3893C28.6556 50.3893 26.6869 48.4206 26.6869 45.992C26.6869 43.5634 28.6556 41.5947 31.0842 41.5947C33.5128 41.5947 35.4816 43.5634 35.4816 45.992Z" stroke="#22BB9F" stroke-width="2"/>
<path d="M33.8948 56.788C33.8948 59.2166 31.9261 61.1854 29.4975 61.1854C27.0689 61.1854 25.1002 59.2166 25.1002 56.788C25.1002 54.3594 27.0689 52.3907 29.4975 52.3907C31.9261 52.3907 33.8948 54.3594 33.8948 56.788Z" stroke="#22BB9F" stroke-width="2"/>
<path d="M68.3308 56.1533C68.3308 58.5819 66.3621 60.5507 63.9335 60.5507C61.5049 60.5507 59.5361 58.5819 59.5361 56.1533C59.5361 53.7248 61.5049 51.756 63.9335 51.756C66.362 51.756 68.3308 53.7248 68.3308 56.1533Z" stroke="#22BB9F" stroke-width="2"/>
<path d="M62.2241 65.3183C62.2241 67.7469 60.2554 69.7156 57.8268 69.7156C55.3982 69.7156 53.4294 67.7469 53.4294 65.3183C53.4294 62.8897 55.3982 60.921 57.8268 60.921C60.2554 60.921 62.2241 62.8897 62.2241 65.3183Z" stroke="#22BB9F" stroke-width="2"/>
<path d="M51.5424 66.2712C51.5424 68.7331 49.5466 70.7288 47.0848 70.7288C44.6229 70.7288 42.6271 68.7331 42.6271 66.2712C42.6271 63.8093 44.6229 61.8136 47.0848 61.8136C49.5466 61.8136 51.5424 63.8093 51.5424 66.2712Z" stroke="#22BB9F" stroke-width="2"/>
<path d="M74.4469 47.1894C74.4469 49.6179 72.4781 51.5867 70.0496 51.5867C67.621 51.5867 65.6522 49.6179 65.6522 47.1894C65.6522 44.7608 67.621 42.792 70.0496 42.792C72.4781 42.792 74.4469 44.7608 74.4469 47.1894Z" stroke="#22BB9F" stroke-width="2"/>
<path d="M77.4989 36.7854C77.4989 39.2139 75.5301 41.1827 73.1016 41.1827C70.673 41.1827 68.7042 39.2139 68.7042 36.7854C68.7042 34.3568 70.673 32.388 73.1016 32.388C75.5301 32.388 77.4989 34.3568 77.4989 36.7854Z" stroke="#22BB9F" stroke-width="2"/>
<path d="M76.9429 25.9893C76.9429 28.4179 74.9741 30.3867 72.5455 30.3867C70.1169 30.3867 68.1482 28.4179 68.1482 25.9893C68.1482 23.5608 70.1169 21.592 72.5455 21.592C74.9741 21.592 76.9429 23.5608 76.9429 25.9893Z" stroke="#22BB9F" stroke-width="2"/>
<path d="M72.9109 15.868C72.9109 18.2966 70.9421 20.2654 68.5135 20.2654C66.085 20.2654 64.1162 18.2966 64.1162 15.868C64.1162 13.4395 66.085 11.4707 68.5135 11.4707C70.9421 11.4707 72.9109 13.4395 72.9109 15.868Z" stroke="#22BB9F" stroke-width="2"/>
<path d="M64.2189 9.3413C64.2189 11.7699 62.2501 13.7386 59.8215 13.7386C57.3929 13.7386 55.4242 11.7699 55.4242 9.3413C55.4242 6.91272 57.3929 4.94397 59.8215 4.94397C62.2501 4.94397 64.2189 6.91272 64.2189 9.3413Z" stroke="#22BB9F" stroke-width="2"/>
<path d="M38.2295 60.768C39.2576 61.3702 40.0336 62.3236 40.4145 63.4525C40.7955 64.5814 40.7558 65.81 40.3028 66.912L30.8428 78.1333L25.1882 74.5893L32.2775 61.492C33.0532 60.7357 34.0558 60.2552 35.1312 60.1244C36.2066 59.9936 37.2952 60.2197 38.2295 60.768Z" fill="#22BB9F"/>
<path d="M30.8429 78.8C30.7179 78.8 30.5955 78.7649 30.4896 78.6987L24.8336 75.1587C24.6899 75.0686 24.5859 74.9272 24.5428 74.7633C24.4997 74.5993 24.5207 74.4251 24.6016 74.276L31.6909 61.1787C31.7232 61.1196 31.7641 61.0657 31.8122 61.0187C32.693 60.1616 33.8304 59.6168 35.0503 59.4675C36.2702 59.3182 37.5054 59.5727 38.5669 60.192C39.7291 60.8803 40.6053 61.9632 41.036 63.2434C41.4668 64.5235 41.4233 65.9159 40.9136 67.1667C40.8873 67.2305 40.8513 67.2899 40.8069 67.3427L31.3536 78.5667C31.2905 78.6404 31.2122 78.6994 31.124 78.7397C31.0358 78.78 30.9399 78.8006 30.8429 78.8V78.8ZM26.0722 74.356L30.7069 77.26L39.7242 66.5614C40.0831 65.6148 40.0963 64.572 39.7614 63.6167C39.4264 62.6615 38.7649 61.8552 37.8936 61.34C37.0989 60.8761 36.176 60.6802 35.2614 60.7813C34.3468 60.8824 33.4891 61.2751 32.8149 61.9013L26.0722 74.356Z" fill="#22BB9F"/>
<path d="M25.1881 74.5934C25.1881 74.5934 21.7521 79.9787 12.6548 80.5934L19.8828 91.3334C19.8828 91.3334 28.9495 86.2667 30.8428 78.1334L25.1881 74.5934Z" fill="#22BB9F"/>
<path d="M19.8842 92C19.7746 92.0002 19.6667 91.9735 19.57 91.9221C19.4732 91.8707 19.3906 91.7962 19.3295 91.7053L12.1135 80.96C12.0481 80.8628 12.0095 80.75 12.0015 80.6331C11.9936 80.5162 12.0166 80.3992 12.0682 80.2941C12.1199 80.1889 12.1984 80.0992 12.2957 80.034C12.3931 79.9688 12.5059 79.9304 12.6228 79.9227C21.2335 79.3453 24.6002 74.284 24.6322 74.2333C24.7269 74.0852 24.8764 73.9806 25.0479 73.9421C25.2195 73.9037 25.3993 73.9345 25.5482 74.028L31.2028 77.572C31.3204 77.6458 31.412 77.7545 31.4648 77.8828C31.5176 78.0112 31.529 78.1528 31.4975 78.288C29.5602 86.6107 20.5948 91.7027 20.2135 91.9147C20.113 91.9711 19.9995 92.0005 19.8842 92V92ZM13.8468 81.1507L20.0855 90.4333C21.9668 89.2493 28.3522 84.8333 30.0855 78.444L25.3628 75.4853C24.2562 76.8467 20.7935 80.3573 13.8468 81.1507Z" fill="#22BB9F"/>
<path d="M48.2575 1C48.2577 1 48.2578 1 48.2579 1L48.2575 1.33334V1Z" stroke="#22BB9F" stroke-width="2"/>
<path d="M41.4615 9.79602C41.4615 12.2246 39.4927 14.1934 37.0641 14.1934C34.6356 14.1934 32.6668 12.2246 32.6668 9.79602C32.6668 7.36744 34.6356 5.39868 37.0641 5.39868C39.4927 5.39868 41.4615 7.36743 41.4615 9.79602Z" stroke="#22BB9F" stroke-width="2"/>
<path d="M37.0642 4.73865C37.0643 4.73865 37.0644 4.73865 37.0646 4.73865L37.0642 5.06644V4.73865Z" stroke="#22BB9F" stroke-width="2"/>
<mask id="path-22-inside-1" fill="white">
<path d="M28.7029 22.688C27.5035 22.688 26.3311 22.3323 25.3339 21.666C24.3367 20.9997 23.5594 20.0526 23.1005 18.9446C22.6415 17.8365 22.5214 16.6172 22.7554 15.4409C22.9894 14.2646 23.5669 13.1841 24.415 12.3361C25.263 11.488 26.3435 10.9105 27.5198 10.6765C28.6961 10.4425 29.9154 10.5626 31.0235 11.0216C32.1315 11.4805 33.0786 12.2578 33.7449 13.255C34.4112 14.2522 34.7669 15.4246 34.7669 16.624C34.7647 18.2316 34.1252 19.7728 32.9884 20.9095C31.8517 22.0463 30.3105 22.6859 28.7029 22.688ZM28.7029 11.888C27.7672 11.888 26.8526 12.1654 26.0746 12.6852C25.2967 13.205 24.6903 13.9439 24.3323 14.8083C23.9742 15.6727 23.8806 16.6239 24.0631 17.5415C24.2456 18.4592 24.6962 19.3021 25.3578 19.9637C26.0194 20.6253 26.8623 21.0759 27.78 21.2584C28.6976 21.4409 29.6488 21.3473 30.5132 20.9892C31.3776 20.6312 32.1165 20.0248 32.6363 19.2469C33.1561 18.4689 33.4335 17.5543 33.4335 16.6186C33.4311 15.3651 32.9317 14.1637 32.045 13.2777C31.1582 12.3917 29.9564 11.8934 28.7029 11.892V11.888Z"/>
</mask>
<path d="M28.7029 22.688L28.7029 24.688L28.7055 24.688L28.7029 22.688ZM34.7669 16.624L36.7669 16.6266V16.624H34.7669ZM28.7029 11.888H30.7029V9.88797L28.7029 9.88797L28.7029 11.888ZM33.4335 16.6186L35.4335 16.6186L35.4335 16.6147L33.4335 16.6186ZM28.7029 11.892H26.7029V13.8897L28.7006 13.892L28.7029 11.892ZM28.7029 20.688C27.8991 20.688 27.1133 20.4496 26.445 20.0031L24.2227 23.3289C25.5489 24.215 27.1079 24.688 28.7029 24.688L28.7029 20.688ZM26.445 20.0031C25.7767 19.5565 25.2558 18.9218 24.9482 18.1792L21.2527 19.7099C21.863 21.1834 22.8966 22.4429 24.2227 23.3289L26.445 20.0031ZM24.9482 18.1792C24.6406 17.4366 24.5601 16.6195 24.7169 15.8311L20.7938 15.0508C20.4827 16.615 20.6423 18.2364 21.2527 19.7099L24.9482 18.1792ZM24.7169 15.8311C24.8738 15.0428 25.2608 14.3186 25.8292 13.7503L23.0007 10.9219C21.873 12.0496 21.105 13.4865 20.7938 15.0508L24.7169 15.8311ZM25.8292 13.7503C26.3975 13.1819 27.1217 12.7949 27.91 12.6381L27.1297 8.71492C25.5654 9.02607 24.1285 9.79409 23.0007 10.9219L25.8292 13.7503ZM27.91 12.6381C28.6983 12.4812 29.5155 12.5617 30.2581 12.8693L31.7888 9.17381C30.3153 8.56346 28.6939 8.40377 27.1297 8.71492L27.91 12.6381ZM30.2581 12.8693C31.0007 13.1769 31.6354 13.6978 32.082 14.3661L35.4078 12.1439C34.5217 10.8177 33.2623 9.78415 31.7888 9.17381L30.2581 12.8693ZM32.082 14.3661C32.5285 15.0345 32.7669 15.8202 32.7669 16.624H36.7669C36.7669 15.0291 36.2939 13.47 35.4078 12.1439L32.082 14.3661ZM32.7669 16.6213C32.7654 17.6994 32.3365 18.733 31.5742 19.4953L34.4026 22.3237C35.9138 20.8126 36.764 18.7637 36.7669 16.6266L32.7669 16.6213ZM31.5742 19.4953C30.8119 20.2577 29.7783 20.6866 28.7002 20.688L28.7055 24.688C30.8426 24.6852 32.8914 23.8349 34.4026 22.3237L31.5742 19.4953ZM28.7029 9.88797C27.3717 9.88797 26.0704 10.2827 24.9635 11.0223L27.1858 14.3482C27.6348 14.0481 28.1628 13.888 28.7029 13.888L28.7029 9.88797ZM24.9635 11.0223C23.8566 11.7619 22.994 12.8131 22.4845 14.0429L26.1801 15.5737C26.3867 15.0747 26.7367 14.6482 27.1858 14.3482L24.9635 11.0223ZM22.4845 14.0429C21.9751 15.2728 21.8418 16.6261 22.1015 17.9317L26.0247 17.1514C25.9193 16.6217 25.9734 16.0726 26.1801 15.5737L22.4845 14.0429ZM22.1015 17.9317C22.3612 19.2374 23.0023 20.4366 23.9436 21.3779L26.772 18.5495C26.3901 18.1676 26.13 17.6811 26.0247 17.1514L22.1015 17.9317ZM23.9436 21.3779C24.8849 22.3192 26.0842 22.9603 27.3898 23.22L28.1701 19.2968C27.6404 19.1915 27.1539 18.9314 26.772 18.5495L23.9436 21.3779ZM27.3898 23.22C28.6954 23.4797 30.0487 23.3464 31.2786 22.837L29.7478 19.1414C29.2489 19.3481 28.6998 19.4022 28.1701 19.2968L27.3898 23.22ZM31.2786 22.837C32.5084 22.3275 33.5596 21.4649 34.2992 20.358L30.9733 18.1357C30.6733 18.5848 30.2468 18.9348 29.7478 19.1414L31.2786 22.837ZM34.2992 20.358C35.0388 19.2511 35.4335 17.9498 35.4335 16.6186L31.4335 16.6186C31.4335 17.1587 31.2734 17.6867 30.9733 18.1357L34.2992 20.358ZM35.4335 16.6147C35.43 14.8318 34.7198 13.123 33.4586 11.8629L30.6314 14.6925C31.1436 15.2044 31.4321 15.8984 31.4335 16.6226L35.4335 16.6147ZM33.4586 11.8629C32.1974 10.6027 30.488 9.89398 28.7051 9.89197L28.7006 13.892C29.4248 13.8928 30.1191 14.1807 30.6314 14.6925L33.4586 11.8629ZM30.7029 11.892V11.888H26.7029V11.892H30.7029Z" fill="#22BB9F" mask="url(#path-22-inside-1)"/>
<mask id="path-24-inside-2" fill="white">
<path d="M23.0469 32.0547C21.8476 32.0547 20.6752 31.699 19.6779 31.0327C18.6807 30.3664 17.9035 29.4193 17.4445 28.3113C16.9855 27.2032 16.8654 25.9839 17.0994 24.8076C17.3334 23.6313 17.911 22.5508 18.759 21.7028C19.6071 20.8547 20.6876 20.2772 21.8639 20.0432C23.0402 19.8092 24.2595 19.9293 25.3675 20.3883C26.4756 20.8472 27.4226 21.6245 28.0889 22.6217C28.7553 23.6189 29.1109 24.7913 29.1109 25.9907C29.1088 27.5983 28.4692 29.1395 27.3325 30.2762C26.1957 31.413 24.6545 32.0526 23.0469 32.0547V32.0547ZM23.0469 21.2547C22.1113 21.2547 21.1967 21.5321 20.4187 22.0519C19.6407 22.5717 19.0344 23.3106 18.6763 24.175C18.3183 25.0394 18.2246 25.9906 18.4071 26.9082C18.5897 27.8259 19.0402 28.6688 19.7018 29.3304C20.3634 29.992 21.2063 30.4426 22.124 30.6251C23.0417 30.8076 23.9928 30.714 24.8573 30.3559C25.7217 29.9978 26.4605 29.3915 26.9803 28.6136C27.5001 27.8356 27.7776 26.921 27.7776 25.9853C27.7751 24.7318 27.2758 23.5304 26.389 22.6444C25.5023 21.7584 24.3004 21.2601 23.0469 21.2587V21.2547Z"/>
</mask>
<path d="M29.1109 25.9907L31.1109 25.9933V25.9907H29.1109ZM23.0469 21.2547H25.0469V19.2547H23.0469V21.2547ZM27.7776 25.9853L29.7776 25.9853L29.7776 25.9814L27.7776 25.9853ZM23.0469 21.2587H21.0469V23.2564L23.0447 23.2587L23.0469 21.2587ZM23.0469 30.0547C22.2431 30.0547 21.4574 29.8163 20.7891 29.3698L18.5668 32.6956C19.8929 33.5817 21.452 34.0547 23.0469 34.0547L23.0469 30.0547ZM20.7891 29.3698C20.1208 28.9232 19.5999 28.2885 19.2923 27.5459L15.5967 29.0766C16.2071 30.5501 17.2407 31.8096 18.5668 32.6956L20.7891 29.3698ZM19.2923 27.5459C18.9847 26.8033 18.9042 25.9862 19.061 25.1978L15.1379 24.4175C14.8267 25.9817 14.9864 27.6031 15.5967 29.0766L19.2923 27.5459ZM19.061 25.1978C19.2178 24.4095 19.6049 23.6853 20.1732 23.117L17.3448 20.2886C16.217 21.4163 15.449 22.8532 15.1379 24.4175L19.061 25.1978ZM20.1732 23.117C20.7416 22.5486 21.4657 22.1616 22.2541 22.0048L21.4737 18.0816C19.9094 18.3928 18.4726 19.1608 17.3448 20.2886L20.1732 23.117ZM22.2541 22.0048C23.0424 21.8479 23.8595 21.9284 24.6021 22.236L26.1329 18.5405C24.6594 17.9302 23.038 17.7705 21.4737 18.0816L22.2541 22.0048ZM24.6021 22.236C25.3447 22.5436 25.9794 23.0645 26.426 23.7328L29.7519 21.5106C28.8658 20.1844 27.6064 19.1509 26.1329 18.5405L24.6021 22.236ZM26.426 23.7328C26.8726 24.4012 27.1109 25.1869 27.1109 25.9907H31.1109C31.1109 24.3958 30.638 22.8367 29.7519 21.5106L26.426 23.7328ZM27.1109 25.988C27.1095 27.0661 26.6806 28.0997 25.9183 28.862L28.7467 31.6904C30.2579 30.1793 31.1081 28.1304 31.1109 25.9933L27.1109 25.988ZM25.9183 28.862C25.1559 29.6243 24.1224 30.0533 23.0443 30.0547L23.0495 34.0547C25.1867 34.0519 27.2355 33.2016 28.7467 31.6904L25.9183 28.862ZM23.0469 19.2547C21.7157 19.2547 20.4144 19.6494 19.3076 20.389L21.5298 23.7149C21.9789 23.4148 22.5068 23.2547 23.0469 23.2547V19.2547ZM19.3076 20.389C18.2007 21.1286 17.338 22.1797 16.8286 23.4096L20.5241 24.9404C20.7308 24.4414 21.0808 24.0149 21.5298 23.7149L19.3076 20.389ZM16.8286 23.4096C16.3192 24.6395 16.1859 25.9928 16.4456 27.2984L20.3687 26.5181C20.2634 25.9884 20.3174 25.4393 20.5241 24.9404L16.8286 23.4096ZM16.4456 27.2984C16.7053 28.604 17.3463 29.8033 18.2876 30.7446L21.116 27.9162C20.7342 27.5343 20.4741 27.0478 20.3687 26.5181L16.4456 27.2984ZM18.2876 30.7446C19.2289 31.6859 20.4282 32.327 21.7338 32.5867L22.5142 28.6635C21.9845 28.5582 21.4979 28.2981 21.116 27.9162L18.2876 30.7446ZM21.7338 32.5867C23.0394 32.8464 24.3928 32.7131 25.6226 32.2037L24.0919 28.5081C23.5929 28.7148 23.0439 28.7689 22.5142 28.6635L21.7338 32.5867ZM25.6226 32.2037C26.8525 31.6942 27.9037 30.8315 28.6433 29.7247L25.3174 27.5024C25.0173 27.9515 24.5909 28.3015 24.0919 28.5081L25.6226 32.2037ZM28.6433 29.7247C29.3828 28.6178 29.7776 27.3165 29.7776 25.9853L25.7776 25.9853C25.7776 26.5254 25.6174 27.0534 25.3174 27.5024L28.6433 29.7247ZM29.7776 25.9814C29.7741 24.1985 29.0639 22.4897 27.8026 21.2296L24.9754 24.0592C25.4877 24.571 25.7762 25.2651 25.7776 25.9893L29.7776 25.9814ZM27.8026 21.2296C26.5414 19.9694 24.832 19.2607 23.0492 19.2587L23.0447 23.2587C23.7688 23.2595 24.4631 23.5474 24.9754 24.0592L27.8026 21.2296ZM25.0469 21.2587V21.2547H21.0469V21.2587H25.0469Z" fill="#22BB9F" mask="url(#path-24-inside-2)"/>
<mask id="path-26-inside-3" fill="white">
<path d="M27.3802 41.9494C26.181 41.9488 25.0088 41.5927 24.0119 40.9261C23.0151 40.2595 22.2382 39.3122 21.7797 38.2041C21.3211 37.096 21.2014 35.8768 21.4357 34.7007C21.67 33.5246 22.2477 32.4443 23.0959 31.5965C23.9441 30.7487 25.0246 30.1714 26.2008 29.9377C27.377 29.7039 28.5962 29.8242 29.7041 30.2832C30.812 30.7422 31.7589 31.5195 32.4251 32.5167C33.0913 33.5138 33.4469 34.6861 33.4469 35.8854C33.4451 37.4935 32.8053 39.0353 31.6679 40.1722C30.5304 41.3092 28.9884 41.9483 27.3802 41.9494V41.9494ZM27.3802 31.1494C26.4449 31.1499 25.5307 31.4276 24.7532 31.9475C23.9758 32.4674 23.3698 33.2061 23.012 34.0703C22.6542 34.9344 22.5606 35.8853 22.743 36.8026C22.9254 37.7199 23.3757 38.5626 24.0368 39.2242C24.698 39.8857 25.5404 40.3364 26.4577 40.5193C27.3749 40.7023 28.3258 40.6092 29.1901 40.2519C30.0545 39.8945 30.7935 39.289 31.3139 38.5118C31.8342 37.7346 32.1125 36.8206 32.1135 35.8854C32.1121 34.6307 31.6129 33.4278 30.7254 32.5409C29.838 31.6539 28.6349 31.1554 27.3802 31.1547V31.1494Z"/>
</mask>
<path d="M33.4469 35.8854L35.4469 35.8875L35.4469 35.8854L33.4469 35.8854ZM27.3802 31.1494H29.3802V29.1482L27.3791 29.1494L27.3802 31.1494ZM32.1135 35.8854L34.1135 35.8876L34.1135 35.8831L32.1135 35.8854ZM27.3802 31.1547H25.3802V33.1536L27.3791 33.1547L27.3802 31.1547ZM27.3811 39.9494C26.5774 39.949 25.7918 39.7104 25.1237 39.2636L22.9002 42.5886C24.2258 43.4751 25.7845 43.9487 27.3793 43.9494L27.3811 39.9494ZM25.1237 39.2636C24.4556 38.8168 23.935 38.182 23.6277 37.4393L19.9317 38.9689C20.5415 40.4424 21.5745 41.7021 22.9002 42.5886L25.1237 39.2636ZM23.6277 37.4393C23.3204 36.6967 23.2401 35.8796 23.3972 35.0914L19.4742 34.31C19.1627 35.874 19.3219 37.4953 19.9317 38.9689L23.6277 37.4393ZM23.3972 35.0914C23.5542 34.3032 23.9414 33.5792 24.5098 33.011L21.682 30.182C20.5541 31.3094 19.7858 32.7459 19.4742 34.31L23.3972 35.0914ZM24.5098 33.011C25.0782 32.4429 25.8024 32.056 26.5907 31.8993L25.8109 27.976C24.2468 28.2869 22.8099 29.0546 21.682 30.182L24.5098 33.011ZM26.5907 31.8993C27.379 31.7426 28.196 31.8232 28.9385 32.1309L30.4696 28.4355C28.9963 27.8251 27.3751 27.6652 25.8109 27.976L26.5907 31.8993ZM28.9385 32.1309C29.681 32.4385 30.3156 32.9594 30.7621 33.6277L34.0881 31.4056C33.2021 30.0796 31.9429 29.046 30.4696 28.4355L28.9385 32.1309ZM30.7621 33.6277C31.2085 34.296 31.4469 35.0816 31.4469 35.8854L35.4469 35.8854C35.4469 34.2906 34.974 32.7316 34.0881 31.4056L30.7621 33.6277ZM31.4469 35.8832C31.4457 36.9615 31.0166 37.9954 30.254 38.7577L33.0818 41.5868C34.5939 40.0753 35.4445 38.0256 35.4469 35.8875L31.4469 35.8832ZM30.254 38.7577C29.4913 39.5201 28.4572 39.9486 27.3789 39.9494L27.3815 43.9494C29.5195 43.9479 31.5696 43.0982 33.0818 41.5868L30.254 38.7577ZM27.3791 29.1494C26.0483 29.1501 24.7477 29.5453 23.6415 30.285L25.865 33.6101C26.3138 33.31 26.8414 33.1497 27.3813 33.1494L27.3791 29.1494ZM23.6415 30.285C22.5353 31.0247 21.6732 32.0757 21.1642 33.3052L24.8599 34.8354C25.0664 34.3366 25.4162 33.9102 25.865 33.6101L23.6415 30.285ZM21.1642 33.3052C20.6551 34.5347 20.5219 35.8875 20.7814 37.1926L24.7046 36.4126C24.5993 35.883 24.6534 35.3342 24.8599 34.8354L21.1642 33.3052ZM20.7814 37.1926C21.0409 38.4978 21.6815 39.6968 22.6222 40.638L25.4514 37.8103C25.0698 37.4285 24.8099 36.9421 24.7046 36.4126L20.7814 37.1926ZM22.6222 40.638C23.5629 41.5792 24.7615 42.2205 26.0665 42.4807L26.8488 38.558C26.3194 38.4524 25.8331 38.1922 25.4514 37.8103L22.6222 40.638ZM26.0665 42.4807C27.3715 42.741 28.7244 42.6085 29.9542 42.1002L28.4261 38.4036C27.9271 38.6098 27.3783 38.6635 26.8488 38.558L26.0665 42.4807ZM29.9542 42.1002C31.184 41.5918 32.2355 40.7303 32.9758 39.6245L29.6519 37.3992C29.3516 37.8478 28.925 38.1973 28.4261 38.4036L29.9542 42.1002ZM32.9758 39.6245C33.7161 38.5187 34.112 37.2183 34.1135 35.8876L30.1135 35.8831C30.1129 36.423 29.9523 36.9506 29.6519 37.3992L32.9758 39.6245ZM34.1135 35.8831C34.1115 34.0986 33.4015 32.3878 32.1393 31.1263L29.3116 33.9555C29.8243 34.4679 30.1127 35.1628 30.1135 35.8876L34.1135 35.8831ZM32.1393 31.1263C30.877 29.8648 29.1658 29.1557 27.3813 29.1547L27.3791 33.1547C28.1039 33.1551 28.7989 33.4431 29.3116 33.9555L32.1393 31.1263ZM29.3802 31.1547V31.1494H25.3802V31.1547H29.3802Z" fill="#22BB9F" mask="url(#path-26-inside-3)"/>
<mask id="path-28-inside-4" fill="white">
<path d="M31.0842 52.056C29.8849 52.056 28.7124 51.7003 27.7152 51.034C26.718 50.3677 25.9408 49.4206 25.4818 48.3126C25.0228 47.2045 24.9027 45.9853 25.1367 44.809C25.3707 43.6327 25.9482 42.5522 26.7963 41.7041C27.6444 40.856 28.7249 40.2785 29.9012 40.0445C31.0775 39.8105 32.2967 39.9306 33.4048 40.3896C34.5129 40.8485 35.4599 41.6258 36.1262 42.623C36.7926 43.6202 37.1482 44.7926 37.1482 45.992C37.1464 47.5997 36.507 49.1411 35.3702 50.2779C34.2333 51.4148 32.6919 52.0542 31.0842 52.056V52.056ZM31.0842 41.256C30.1486 41.256 29.2339 41.5334 28.456 42.0532C27.678 42.5731 27.0717 43.3119 26.7136 44.1763C26.3556 45.0407 26.2619 45.9919 26.4444 46.9096C26.627 47.8272 27.0775 48.6701 27.7391 49.3317C28.4007 49.9933 29.2436 50.4439 30.1613 50.6264C31.079 50.809 32.0301 50.7153 32.8946 50.3572C33.759 49.9992 34.4978 49.3928 35.0176 48.6149C35.5374 47.8369 35.8149 46.9223 35.8149 45.9867C35.8121 44.7334 35.3126 43.5323 34.4259 42.6466C33.5391 41.7609 32.3375 41.2627 31.0842 41.2613V41.256Z"/>
</mask>
<path d="M37.1482 45.992L39.1482 45.9942V45.992H37.1482ZM31.0842 41.256H33.0842V39.256L31.0842 39.256L31.0842 41.256ZM35.8149 45.9867L37.8149 45.9867L37.8149 45.9821L35.8149 45.9867ZM31.0842 41.2613H29.0842V43.2591L31.082 43.2613L31.0842 41.2613ZM31.0842 50.056C30.2804 50.056 29.4947 49.8176 28.8264 49.3711L26.6041 52.697C27.9302 53.583 29.4893 54.056 31.0842 54.056L31.0842 50.056ZM28.8264 49.3711C28.158 48.9245 27.6372 48.2898 27.3296 47.5472L23.634 49.0779C24.2444 50.5514 25.278 51.8109 26.6041 52.697L28.8264 49.3711ZM27.3296 47.5472C27.022 46.8046 26.9415 45.9875 27.0983 45.1991L23.1752 44.4188C22.864 45.983 23.0237 47.6044 23.634 49.0779L27.3296 47.5472ZM27.0983 45.1991C27.2551 44.4108 27.6422 43.6867 28.2105 43.1183L25.3821 40.2899C24.2543 41.4176 23.4863 42.8545 23.1752 44.4188L27.0983 45.1991ZM28.2105 43.1183C28.7789 42.5499 29.503 42.1629 30.2914 42.0061L29.511 38.0829C27.9467 38.3941 26.5099 39.1621 25.3821 40.2899L28.2105 43.1183ZM30.2914 42.0061C31.0797 41.8493 31.8968 41.9297 32.6394 42.2373L34.1702 38.5418C32.6967 37.9315 31.0753 37.7718 29.511 38.0829L30.2914 42.0061ZM32.6394 42.2373C33.382 42.5449 34.0167 43.0658 34.4633 43.7341L37.7892 41.5119C36.9031 40.1857 35.6437 39.1522 34.1702 38.5418L32.6394 42.2373ZM34.4633 43.7341C34.9099 44.4025 35.1482 45.1882 35.1482 45.992H39.1482C39.1482 44.3971 38.6753 42.838 37.7892 41.5119L34.4633 43.7341ZM35.1482 45.9898C35.147 47.0678 34.7182 48.1014 33.9559 48.8637L36.7844 51.6921C38.2957 50.1808 39.1459 48.1316 39.1482 45.9942L35.1482 45.9898ZM33.9559 48.8637C33.1936 49.626 32.1601 50.0548 31.082 50.056L31.0864 54.056C33.2238 54.0536 35.273 53.2035 36.7844 51.6921L33.9559 48.8637ZM31.0842 39.256C29.753 39.256 28.4517 39.6507 27.3448 40.3903L29.5671 43.7162C30.0162 43.4161 30.5441 43.256 31.0842 43.256L31.0842 39.256ZM27.3448 40.3903C26.238 41.1299 25.3753 42.1811 24.8659 43.4109L28.5614 44.9417C28.7681 44.4427 29.1181 44.0162 29.5671 43.7162L27.3448 40.3903ZM24.8659 43.4109C24.3565 44.6408 24.2232 45.9941 24.4829 47.2997L28.406 46.5194C28.3006 45.9897 28.3547 45.4406 28.5614 44.9417L24.8659 43.4109ZM24.4829 47.2997C24.7426 48.6054 25.3836 49.8046 26.3249 50.7459L29.1533 47.9175C28.7714 47.5356 28.5114 47.0491 28.406 46.5194L24.4829 47.2997ZM26.3249 50.7459C27.2662 51.6872 28.4655 52.3283 29.7711 52.588L30.5515 48.6648C30.0218 48.5595 29.5352 48.2994 29.1533 47.9175L26.3249 50.7459ZM29.7711 52.588C31.0767 52.8477 32.4301 52.7144 33.6599 52.205L32.1292 48.5095C31.6302 48.7161 31.0812 48.7702 30.5515 48.6648L29.7711 52.588ZM33.6599 52.205C34.8898 51.6955 35.941 50.8329 36.6806 49.726L33.3547 47.5037C33.0546 47.9528 32.6282 48.3028 32.1292 48.5095L33.6599 52.205ZM36.6806 49.726C37.4201 48.6192 37.8149 47.3179 37.8149 45.9867L33.8149 45.9867C33.8149 46.5267 33.6547 47.0547 33.3547 47.5037L36.6806 49.726ZM37.8149 45.9821C37.8109 44.1996 37.1004 42.4913 35.8393 41.2316L33.0124 44.0616C33.5247 44.5733 33.8132 45.2671 33.8149 45.9912L37.8149 45.9821ZM35.8393 41.2316C34.5781 39.9718 32.869 39.2633 31.0865 39.2613L31.082 43.2613C31.806 43.2621 32.5002 43.5499 33.0124 44.0616L35.8393 41.2316ZM33.0842 41.2613V41.256H29.0842V41.2613H33.0842Z" fill="#22BB9F" mask="url(#path-28-inside-4)"/>
<mask id="path-30-inside-5" fill="white">
<path d="M29.4975 62.852C28.2982 62.852 27.1258 62.4964 26.1286 61.83C25.1313 61.1637 24.3541 60.2166 23.8951 59.1086C23.4362 58.0005 23.3161 56.7813 23.5501 55.605C23.784 54.4287 24.3616 53.3482 25.2096 52.5001C26.0577 51.652 27.1382 51.0745 28.3145 50.8405C29.4908 50.6065 30.7101 50.7266 31.8181 51.1856C32.9262 51.6446 33.8732 52.4218 34.5396 53.419C35.2059 54.4162 35.5615 55.5887 35.5615 56.788C35.5594 58.3956 34.9199 59.9368 33.7831 61.0736C32.6463 62.2103 31.1052 62.8499 29.4975 62.852V62.852ZM29.4975 52.052C28.5619 52.052 27.6473 52.3295 26.8693 52.8493C26.0914 53.3691 25.485 54.1079 25.127 54.9723C24.7689 55.8367 24.6752 56.7879 24.8578 57.7056C25.0403 58.6232 25.4909 59.4662 26.1525 60.1278C26.814 60.7894 27.657 61.2399 28.5746 61.4224C29.4923 61.605 30.4435 61.5113 31.3079 61.1532C32.1723 60.7952 32.9111 60.1888 33.4309 59.4109C33.9508 58.6329 34.2282 57.7183 34.2282 56.7827C34.2257 55.5291 33.7264 54.3277 32.8397 53.4417C31.9529 52.5557 30.7511 52.0574 29.4975 52.056V52.052Z"/>
</mask>
<path d="M35.5615 56.788L37.5615 56.7906V56.788L35.5615 56.788ZM29.4975 52.052H31.4975V50.052L29.4975 50.052L29.4975 52.052ZM34.2282 56.7827L36.2282 56.7827L36.2282 56.7787L34.2282 56.7827ZM29.4975 52.056H27.4975V54.0538L29.4953 54.056L29.4975 52.056ZM29.4975 60.852C28.6938 60.852 27.908 60.6137 27.2397 60.1671L25.0174 63.493C26.3435 64.3791 27.9026 64.852 29.4975 64.852V60.852ZM27.2397 60.1671C26.5714 59.7205 26.0505 59.0858 25.7429 58.3432L22.0474 59.874C22.6577 61.3475 23.6913 62.6069 25.0174 63.493L27.2397 60.1671ZM25.7429 58.3432C25.4353 57.6006 25.3548 56.7835 25.5116 55.9952L21.5885 55.2148C21.2773 56.7791 21.437 58.4005 22.0474 59.874L25.7429 58.3432ZM25.5116 55.9952C25.6684 55.2068 26.0555 54.4827 26.6239 53.9143L23.7954 51.0859C22.6677 52.2137 21.8996 53.6505 21.5885 55.2148L25.5116 55.9952ZM26.6239 53.9143C27.1922 53.346 27.9164 52.9589 28.7047 52.8021L27.9243 48.879C26.3601 49.1901 24.9232 49.9581 23.7954 51.0859L26.6239 53.9143ZM28.7047 52.8021C29.493 52.6453 30.3102 52.7258 31.0528 53.0334L32.5835 49.3378C31.11 48.7275 29.4886 48.5678 27.9243 48.879L28.7047 52.8021ZM31.0528 53.0334C31.7954 53.3409 32.4301 53.8618 32.8766 54.5302L36.2025 52.3079C35.3164 50.9818 34.057 49.9482 32.5835 49.3378L31.0528 53.0334ZM32.8766 54.5302C33.3232 55.1985 33.5615 55.9842 33.5615 56.788L37.5615 56.788C37.5615 55.1931 37.0886 53.634 36.2025 52.3079L32.8766 54.5302ZM33.5615 56.7854C33.5601 57.8635 33.1312 58.897 32.3689 59.6593L35.1973 62.4878C36.7085 60.9766 37.5587 58.9278 37.5615 56.7906L33.5615 56.7854ZM32.3689 59.6593C31.6065 60.4217 30.573 60.8506 29.4949 60.852L29.5002 64.852C31.6373 64.8492 33.6861 63.999 35.1973 62.4878L32.3689 59.6593ZM29.4975 50.052C28.1663 50.052 26.865 50.4468 25.7582 51.1863L27.9805 54.5122C28.4295 54.2122 28.9575 54.052 29.4975 54.052L29.4975 50.052ZM25.7582 51.1863C24.6513 51.9259 23.7886 52.9771 23.2792 54.207L26.9747 55.7377C27.1814 55.2387 27.5314 54.8123 27.9805 54.5122L25.7582 51.1863ZM23.2792 54.207C22.7698 55.4368 22.6365 56.7901 22.8962 58.0958L26.8193 57.3154C26.714 56.7857 26.7681 56.2367 26.9747 55.7377L23.2792 54.207ZM22.8962 58.0958C23.1559 59.4014 23.7969 60.6007 24.7382 61.542L27.5667 58.7135C27.1848 58.3317 26.9247 57.8451 26.8193 57.3154L22.8962 58.0958ZM24.7382 61.542C25.6795 62.4833 26.8788 63.1243 28.1844 63.384L28.9648 59.4609C28.4351 59.3555 27.9486 59.0954 27.5667 58.7135L24.7382 61.542ZM28.1844 63.384C29.4901 63.6437 30.8434 63.5104 32.0733 63.001L30.5425 59.3055C30.0436 59.5122 29.4945 59.5662 28.9648 59.4609L28.1844 63.384ZM32.0733 63.001C33.3031 62.4916 34.3543 61.6289 35.0939 60.522L31.768 58.2997C31.468 58.7488 31.0415 59.0988 30.5425 59.3055L32.0733 63.001ZM35.0939 60.522C35.8335 59.4152 36.2282 58.1139 36.2282 56.7827L32.2282 56.7827C32.2282 57.3227 32.0681 57.8507 31.768 58.2997L35.0939 60.522ZM36.2282 56.7787C36.2247 54.9958 35.5145 53.2871 34.2533 52.0269L31.426 54.8565C31.9383 55.3684 32.2268 56.0624 32.2282 56.7866L36.2282 56.7787ZM34.2533 52.0269C32.992 50.7668 31.2827 50.058 29.4998 50.056L29.4953 54.056C30.2195 54.0568 30.9138 54.3447 31.426 54.8565L34.2533 52.0269ZM31.4975 52.056V52.052H27.4975V52.056H31.4975Z" fill="#22BB9F" mask="url(#path-30-inside-5)"/>
<mask id="path-32-inside-6" fill="white">
<path d="M63.9336 62.2173C62.7343 62.2173 61.5619 61.8617 60.5647 61.1954C59.5674 60.529 58.7902 59.582 58.3312 58.4739C57.8723 57.3659 57.7522 56.1466 57.9862 54.9703C58.2201 53.794 58.7977 52.7135 59.6457 51.8654C60.4938 51.0174 61.5743 50.4398 62.7506 50.2058C63.9269 49.9719 65.1462 50.092 66.2542 50.5509C67.3623 51.0099 68.3093 51.7871 68.9757 52.7844C69.642 53.7816 69.9976 54.954 69.9976 56.1533C69.9959 57.7611 69.3564 59.3024 68.2196 60.4393C67.0827 61.5761 65.5414 62.2156 63.9336 62.2173V62.2173ZM63.9336 51.4173C62.998 51.4173 62.0834 51.6948 61.3054 52.2146C60.5275 52.7344 59.9211 53.4732 59.5631 54.3376C59.205 55.2021 59.1113 56.1532 59.2939 57.0709C59.4764 57.9886 59.9269 58.8315 60.5885 59.4931C61.2501 60.1547 62.0931 60.6052 63.0107 60.7878C63.9284 60.9703 64.8796 60.8766 65.744 60.5186C66.6084 60.1605 67.3472 59.5542 67.867 58.7762C68.3869 57.9983 68.6643 57.0836 68.6643 56.148C68.6618 54.8945 68.1625 53.6931 67.2758 52.8071C66.389 51.9211 65.1872 51.4227 63.9336 51.4213V51.4173Z"/>
</mask>
<path d="M69.9976 56.1533L71.9976 56.1555V56.1533L69.9976 56.1533ZM63.9336 51.4173H65.9336V49.4173L63.9336 49.4173L63.9336 51.4173ZM68.6643 56.148L70.6643 56.148L70.6643 56.1441L68.6643 56.148ZM63.9336 51.4213H61.9336V53.4191L63.9314 53.4213L63.9336 51.4213ZM63.9336 60.2173C63.1298 60.2173 62.3441 59.979 61.6758 59.5324L59.4535 62.8583C60.7796 63.7444 62.3387 64.2173 63.9336 64.2173V60.2173ZM61.6758 59.5324C61.0075 59.0859 60.4866 58.4512 60.179 57.7086L56.4835 59.2393C57.0938 60.7128 58.1274 61.9722 59.4535 62.8583L61.6758 59.5324ZM60.179 57.7086C59.8714 56.966 59.7909 56.1488 59.9477 55.3605L56.0246 54.5801C55.7134 56.1444 55.8731 57.7658 56.4835 59.2393L60.179 57.7086ZM59.9477 55.3605C60.1045 54.5721 60.4916 53.848 61.06 53.2796L58.2315 50.4512C57.1038 51.579 56.3357 53.0159 56.0246 54.5801L59.9477 55.3605ZM61.06 53.2796C61.6283 52.7113 62.3524 52.3242 63.1408 52.1674L62.3604 48.2443C60.7962 48.5554 59.3593 49.3234 58.2315 50.4512L61.06 53.2796ZM63.1408 52.1674C63.9291 52.0106 64.7463 52.0911 65.4889 52.3987L67.0196 48.7032C65.5461 48.0928 63.9247 47.9331 62.3604 48.2443L63.1408 52.1674ZM65.4889 52.3987C66.2315 52.7063 66.8662 53.2272 67.3127 53.8955L70.6386 51.6732C69.7525 50.3471 68.4931 49.3135 67.0196 48.7032L65.4889 52.3987ZM67.3127 53.8955C67.7593 54.5638 67.9976 55.3495 67.9976 56.1533L71.9976 56.1533C71.9976 54.5584 71.5247 52.9993 70.6386 51.6732L67.3127 53.8955ZM67.9976 56.1511C67.9965 57.2292 67.5677 58.2628 66.8054 59.0251L69.6338 61.8535C71.1452 60.3421 71.9953 58.2929 71.9976 56.1555L67.9976 56.1511ZM66.8054 59.0251C66.0431 59.7874 65.0095 60.2161 63.9314 60.2173L63.9358 64.2173C66.0732 64.215 68.1224 63.3649 69.6338 61.8535L66.8054 59.0251ZM63.9336 49.4173C62.6024 49.4173 61.3011 49.8121 60.1943 50.5517L62.4166 53.8775C62.8656 53.5775 63.3936 53.4173 63.9336 53.4173L63.9336 49.4173ZM60.1943 50.5517C59.0874 51.2912 58.2247 52.3424 57.7153 53.5723L61.4108 55.103C61.6175 54.6041 61.9675 54.1776 62.4166 53.8775L60.1943 50.5517ZM57.7153 53.5723C57.2059 54.8022 57.0726 56.1555 57.3323 57.4611L61.2554 56.6807C61.1501 56.151 61.2041 55.602 61.4108 55.103L57.7153 53.5723ZM57.3323 57.4611C57.592 58.7667 58.233 59.966 59.1743 60.9073L62.0028 58.0789C61.6209 57.697 61.3608 57.2104 61.2554 56.6807L57.3323 57.4611ZM59.1743 60.9073C60.1156 61.8486 61.3149 62.4896 62.6205 62.7493L63.4009 58.8262C62.8712 58.7208 62.3846 58.4608 62.0028 58.0789L59.1743 60.9073ZM62.6205 62.7493C63.9262 63.009 65.2795 62.8757 66.5093 62.3663L64.9786 58.6708C64.4796 58.8775 63.9306 58.9316 63.4009 58.8262L62.6205 62.7493ZM66.5093 62.3663C67.7392 61.8569 68.7904 60.9942 69.53 59.8874L66.2041 57.6651C65.9041 58.1141 65.4776 58.4641 64.9786 58.6708L66.5093 62.3663ZM69.53 59.8874C70.2696 58.7805 70.6643 57.4792 70.6643 56.148L66.6643 56.148C66.6643 56.6881 66.5041 57.216 66.2041 57.6651L69.53 59.8874ZM70.6643 56.1441C70.6608 54.3612 69.9506 52.6524 68.6894 51.3922L65.8621 54.2219C66.3744 54.7337 66.6629 55.4278 66.6643 56.1519L70.6643 56.1441ZM68.6894 51.3922C67.4281 50.1321 65.7188 49.4233 63.9359 49.4213L63.9314 53.4213C64.6556 53.4221 65.3499 53.71 65.8621 54.2219L68.6894 51.3922ZM65.9336 51.4213V51.4173H61.9336V51.4213H65.9336Z" fill="#22BB9F" mask="url(#path-32-inside-6)"/>
<mask id="path-34-inside-7" fill="white">
<path d="M57.8267 71.3823C56.6274 71.3823 55.4549 71.0266 54.4577 70.3603C53.4605 69.694 52.6833 68.7469 52.2243 67.6389C51.7653 66.5308 51.6452 65.3116 51.8792 64.1352C52.1132 62.9589 52.6907 61.8784 53.5388 61.0304C54.3869 60.1823 55.4674 59.6048 56.6437 59.3708C57.82 59.1368 59.0392 59.2569 60.1473 59.7159C61.2553 60.1748 62.2024 60.9521 62.8687 61.9493C63.5351 62.9465 63.8907 64.1189 63.8907 65.3183C63.8889 66.926 63.2495 68.4674 62.1126 69.6042C60.9758 70.7411 59.4344 71.3805 57.8267 71.3823V71.3823ZM57.8267 60.5823C56.8911 60.5823 55.9764 60.8597 55.1985 61.3795C54.4205 61.8993 53.8142 62.6382 53.4561 63.5026C53.0981 64.367 53.0044 65.3182 53.1869 66.2359C53.3695 67.1535 53.82 67.9964 54.4816 68.658C55.1432 69.3196 55.9861 69.7702 56.9038 69.9527C57.8215 70.1352 58.7726 70.0416 59.637 69.6835C60.5015 69.3255 61.2403 68.7191 61.7601 67.9412C62.2799 67.1632 62.5574 66.2486 62.5574 65.3129C62.5549 64.0594 62.0556 62.858 61.1688 61.972C60.2821 61.086 59.0802 60.5877 57.8267 60.5863V60.5823Z"/>
</mask>
<path d="M63.8907 65.3183L65.8907 65.3205V65.3183L63.8907 65.3183ZM57.8267 60.5823H59.8267V58.5823L57.8267 58.5823L57.8267 60.5823ZM62.5574 65.3129L64.5574 65.3129L64.5574 65.309L62.5574 65.3129ZM57.8267 60.5863H55.8267V62.584L57.8244 62.5863L57.8267 60.5863ZM57.8267 69.3823C57.0229 69.3823 56.2372 69.1439 55.5689 68.6974L53.3466 72.0232C54.6727 72.9093 56.2318 73.3823 57.8267 73.3823V69.3823ZM55.5689 68.6974C54.9005 68.2508 54.3796 67.6161 54.072 66.8735L50.3765 68.4042C50.9869 69.8777 52.0205 71.1372 53.3466 72.0232L55.5689 68.6974ZM54.072 66.8735C53.7645 66.1309 53.684 65.3138 53.8408 64.5254L49.9176 63.7451C49.6065 65.3093 49.7662 66.9307 50.3765 68.4042L54.072 66.8735ZM53.8408 64.5254C53.9976 63.7371 54.3847 63.013 54.953 62.4446L52.1246 59.6162C50.9968 60.7439 50.2288 62.1808 49.9176 63.7451L53.8408 64.5254ZM54.953 62.4446C55.5214 61.8762 56.2455 61.4892 57.0338 61.3324L56.2535 57.4092C54.6892 57.7204 53.2524 58.4884 52.1246 59.6162L54.953 62.4446ZM57.0338 61.3324C57.8222 61.1756 58.6393 61.256 59.3819 61.5636L60.9127 57.8681C59.4392 57.2578 57.8178 57.0981 56.2535 57.4092L57.0338 61.3324ZM59.3819 61.5636C60.1245 61.8712 60.7592 62.3921 61.2058 63.0604L64.5317 60.8382C63.6456 59.512 62.3862 58.4785 60.9127 57.8681L59.3819 61.5636ZM61.2058 63.0604C61.6524 63.7288 61.8907 64.5145 61.8907 65.3183L65.8907 65.3183C65.8907 63.7234 65.4178 62.1643 64.5317 60.8382L61.2058 63.0604ZM61.8907 65.3161C61.8895 66.3941 61.4607 67.4277 60.6984 68.19L63.5269 71.0184C65.0382 69.5071 65.8884 67.4579 65.8907 65.3205L61.8907 65.3161ZM60.6984 68.19C59.9361 68.9523 58.9026 69.3811 57.8245 69.3823L57.8289 73.3823C59.9663 73.3799 62.0155 72.5298 63.5269 71.0184L60.6984 68.19ZM57.8267 58.5823C56.4955 58.5823 55.1942 58.977 54.0873 59.7166L56.3096 63.0425C56.7587 62.7424 57.2866 62.5823 57.8267 62.5823L57.8267 58.5823ZM54.0873 59.7166C52.9805 60.4562 52.1178 61.5074 51.6084 62.7372L55.3039 64.268C55.5106 63.769 55.8606 63.3425 56.3096 63.0425L54.0873 59.7166ZM51.6084 62.7372C51.0989 63.9671 50.9657 65.3204 51.2254 66.626L55.1485 65.8457C55.0431 65.316 55.0972 64.7669 55.3039 64.268L51.6084 62.7372ZM51.2254 66.626C51.4851 67.9316 52.1261 69.1309 53.0674 70.0722L55.8958 67.2438C55.5139 66.8619 55.2539 66.3754 55.1485 65.8457L51.2254 66.626ZM53.0674 70.0722C54.0087 71.0135 55.208 71.6546 56.5136 71.9143L57.294 67.9911C56.7643 67.8858 56.2777 67.6257 55.8958 67.2438L53.0674 70.0722ZM56.5136 71.9143C57.8192 72.174 59.1725 72.0407 60.4024 71.5313L58.8717 67.8357C58.3727 68.0424 57.8237 68.0965 57.294 67.9911L56.5136 71.9143ZM60.4024 71.5313C61.6323 71.0218 62.6835 70.1592 63.423 69.0523L60.0972 66.83C59.7971 67.2791 59.3706 67.6291 58.8717 67.8357L60.4024 71.5313ZM63.423 69.0523C64.1626 67.9455 64.5574 66.6441 64.5574 65.3129L60.5574 65.3129C60.5574 65.853 60.3972 66.381 60.0972 66.83L63.423 69.0523ZM64.5574 65.309C64.5538 63.5261 63.8437 61.8173 62.5824 60.5572L59.7552 63.3868C60.2675 63.8987 60.5559 64.5927 60.5574 65.3169L64.5574 65.309ZM62.5824 60.5572C61.3212 59.297 59.6118 58.5883 57.8289 58.5863L57.8244 62.5863C58.5486 62.5871 59.2429 62.875 59.7552 63.3868L62.5824 60.5572ZM59.8267 60.5863V60.5823H55.8267V60.5863H59.8267Z" fill="#22BB9F" mask="url(#path-34-inside-7)"/>
<mask id="path-36-inside-8" fill="white">
<path d="M47.0848 72.5085C45.8511 72.5085 44.6452 72.1427 43.6195 71.4573C42.5938 70.7719 41.7943 69.7978 41.3223 68.6581C40.8502 67.5184 40.7267 66.2643 40.9673 65.0544C41.208 63.8444 41.802 62.7331 42.6743 61.8608C43.5466 60.9885 44.658 60.3944 45.8679 60.1538C47.0778 59.9131 48.332 60.0366 49.4717 60.5087C50.6114 60.9808 51.5855 61.7802 52.2709 62.8059C52.9562 63.8317 53.3221 65.0376 53.3221 66.2712C53.3202 67.9249 52.6625 69.5103 51.4932 70.6796C50.3239 71.8489 48.7384 72.5067 47.0848 72.5085V72.5085ZM47.0848 61.3999C46.1224 61.3999 45.1816 61.6852 44.3814 62.2199C43.5813 62.7546 42.9576 63.5145 42.5893 64.4036C42.221 65.2927 42.1247 66.2711 42.3124 67.215C42.5002 68.1589 42.9636 69.0259 43.6441 69.7064C44.3246 70.3869 45.1916 70.8503 46.1355 71.0381C47.0794 71.2258 48.0577 71.1295 48.9468 70.7612C49.836 70.3929 50.5959 69.7692 51.1306 68.969C51.6652 68.1689 51.9506 67.2281 51.9506 66.2657C51.9481 64.9764 51.4345 63.7406 50.5224 62.8293C49.6103 61.918 48.3741 61.4054 47.0848 61.404V61.3999Z"/>
</mask>
<path d="M53.3221 66.2712L55.3221 66.2734V66.2712L53.3221 66.2712ZM47.0848 61.3999H49.0848V59.3999L47.0848 59.3999L47.0848 61.3999ZM51.9506 66.2657L53.9506 66.2657L53.9506 66.2618L51.9506 66.2657ZM47.0848 61.404H45.0848V63.4017L47.0825 63.404L47.0848 61.404ZM47.0848 70.5085C46.2467 70.5085 45.4275 70.26 44.7307 69.7944L42.5084 73.1203C43.863 74.0254 45.4556 74.5085 47.0848 74.5085V70.5085ZM44.7307 69.7944C44.0338 69.3288 43.4907 68.667 43.17 67.8927L39.4745 69.4235C40.098 70.9286 41.1538 72.2151 42.5084 73.1203L44.7307 69.7944ZM43.17 67.8927C42.8493 67.1185 42.7654 66.2665 42.9289 65.4445L39.0058 64.6642C38.6879 66.2621 38.851 67.9183 39.4745 69.4235L43.17 67.8927ZM42.9289 65.4445C43.0924 64.6226 43.496 63.8676 44.0886 63.275L41.2601 60.4466C40.1081 61.5986 39.3236 63.0663 39.0058 64.6642L42.9289 65.4445ZM44.0886 63.275C44.6811 62.6824 45.4362 62.2788 46.2581 62.1153L45.4777 58.1922C43.8799 58.51 42.4121 59.2946 41.2601 60.4466L44.0886 63.275ZM46.2581 62.1153C47.0801 61.9518 47.932 62.0357 48.7063 62.3565L50.237 58.6609C48.7319 58.0375 47.0756 57.8743 45.4777 58.1922L46.2581 62.1153ZM48.7063 62.3565C49.4806 62.6772 50.1423 63.2203 50.6079 63.9171L53.9338 61.6948C53.0287 60.3402 51.7422 59.2844 50.237 58.6609L48.7063 62.3565ZM50.6079 63.9171C51.0735 64.6139 51.3221 65.4331 51.3221 66.2712L55.3221 66.2712C55.3221 64.642 54.8389 63.0494 53.9338 61.6948L50.6079 63.9171ZM51.3221 66.269C51.3208 67.393 50.8738 68.4706 50.079 69.2654L52.9074 72.0938C54.4513 70.55 55.3197 68.4567 55.3221 66.2734L51.3221 66.269ZM50.079 69.2654C49.2842 70.0602 48.2066 70.5073 47.0826 70.5085L47.087 74.5085C49.2703 74.5061 51.3635 73.6377 52.9074 72.0938L50.079 69.2654ZM47.0848 59.3999C45.7268 59.3999 44.3994 59.8025 43.2703 60.557L45.4926 63.8828C45.9639 63.5679 46.518 63.3999 47.0848 63.3999L47.0848 59.3999ZM43.2703 60.557C42.1412 61.3114 41.2612 62.3837 40.7415 63.6383L44.4371 65.169C44.654 64.6453 45.0213 64.1977 45.4926 63.8828L43.2703 60.557ZM40.7415 63.6383C40.2219 64.8928 40.0859 66.2733 40.3508 67.6052L44.274 66.8248C44.1634 66.2689 44.2202 65.6927 44.4371 65.169L40.7415 63.6383ZM40.3508 67.6052C40.6158 68.937 41.2697 70.1604 42.2299 71.1206L45.0583 68.2922C44.6575 67.8914 44.3846 67.3807 44.274 66.8248L40.3508 67.6052ZM42.2299 71.1206C43.1901 72.0808 44.4135 72.7347 45.7453 72.9996L46.5257 69.0765C45.9697 68.9659 45.4591 68.693 45.0583 68.2922L42.2299 71.1206ZM45.7453 72.9996C47.0772 73.2646 48.4576 73.1286 49.7122 72.6089L48.1815 68.9134C47.6578 69.1303 47.0816 69.1871 46.5257 69.0765L45.7453 72.9996ZM49.7122 72.6089C50.9668 72.0893 52.0391 71.2093 52.7935 70.0802L49.4676 67.8579C49.1527 68.3292 48.7051 68.6965 48.1815 68.9134L49.7122 72.6089ZM52.7935 70.0802C53.5479 68.9511 53.9506 67.6236 53.9506 66.2657L49.9506 66.2657C49.9506 66.8325 49.7825 67.3866 49.4676 67.8579L52.7935 70.0802ZM53.9506 66.2618C53.947 64.4431 53.2226 62.7 51.936 61.4145L49.1088 64.2441C49.6464 64.7813 49.9491 65.5097 49.9506 66.2697L53.9506 66.2618ZM51.936 61.4145C50.6494 60.129 48.9057 59.406 47.087 59.404L47.0825 63.404C47.8425 63.4048 48.5712 63.7069 49.1088 64.2441L51.936 61.4145ZM49.0848 61.404V61.3999H45.0848V61.404H49.0848Z" fill="#22BB9F" mask="url(#path-36-inside-8)"/>
<mask id="path-38-inside-9" fill="white">
<path d="M70.0508 53.2533C68.8514 53.2536 67.6789 52.8982 66.6815 52.232C65.6841 51.5658 64.9066 50.6189 64.4475 49.5108C63.9883 48.4028 63.868 47.1835 64.1018 46.0071C64.3357 44.8307 64.9131 43.7501 65.7611 42.9019C66.6091 42.0537 67.6896 41.476 68.866 41.2419C70.0423 41.0078 71.2616 41.1278 72.3698 41.5868C73.4779 42.0457 74.425 42.8229 75.0914 43.8202C75.7578 44.8174 76.1135 45.9899 76.1135 47.1893C76.1114 48.7967 75.472 50.3377 74.3355 51.4744C73.199 52.6111 71.6582 53.2508 70.0508 53.2533V53.2533ZM70.0508 42.4533C69.1153 42.453 68.2008 42.7301 67.4228 43.2496C66.6448 43.769 66.0382 44.5074 65.6798 45.3715C65.3214 46.2356 65.2272 47.1865 65.4092 48.1041C65.5911 49.0217 66.041 49.8648 66.702 50.5267C67.363 51.1886 68.2055 51.6398 69.1228 51.823C70.0402 52.0062 70.9912 51.9134 71.8558 51.5562C72.7204 51.199 73.4597 50.5935 73.9802 49.8162C74.5007 49.0389 74.7791 48.1248 74.7801 47.1893C74.7791 45.9351 74.2806 44.7325 73.3939 43.8454C72.5073 42.9583 71.305 42.4591 70.0508 42.4573V42.4533Z"/>
</mask>
<path d="M76.1135 47.1893L78.1135 47.1919L78.1135 47.1893L76.1135 47.1893ZM70.0508 42.4533H72.0508V40.4539L70.0514 40.4533L70.0508 42.4533ZM74.7801 47.1893L76.7802 47.1916L76.7801 47.1876L74.7801 47.1893ZM70.0508 42.4573H68.0508V44.4545L70.048 44.4573L70.0508 42.4573ZM70.0504 51.2533C69.2465 51.2535 68.4607 51.0153 67.7923 50.5688L65.5706 53.8951C66.897 54.781 68.4563 55.2537 70.0513 55.2533L70.0504 51.2533ZM67.7923 50.5688C67.1239 50.1224 66.6028 49.4877 66.2951 48.7452L62.5998 50.2765C63.2104 51.75 64.2443 53.0093 65.5706 53.8951L67.7923 50.5688ZM66.2951 48.7452C65.9874 48.0026 65.9067 47.1854 66.0635 46.397L62.1402 45.6172C61.8293 47.1816 61.9892 48.803 62.5998 50.2765L66.2951 48.7452ZM66.0635 46.397C66.2202 45.6086 66.6072 44.8844 67.1755 44.3159L64.3467 41.4878C63.219 42.6158 62.4512 44.0528 62.1402 45.6172L66.0635 46.397ZM67.1755 44.3159C67.7438 43.7475 68.4679 43.3603 69.2563 43.2035L68.4756 39.2804C66.9113 39.5917 65.4744 40.3599 64.3467 41.4878L67.1755 44.3159ZM69.2563 43.2035C70.0447 43.0466 70.8618 43.127 71.6045 43.4346L73.135 39.739C71.6614 39.1287 70.0399 38.9691 68.4756 39.2804L69.2563 43.2035ZM71.6045 43.4346C72.3472 43.7421 72.9819 44.263 73.4285 44.9314L76.7543 42.709C75.8682 41.3828 74.6086 40.3493 73.135 39.739L71.6045 43.4346ZM73.4285 44.9314C73.8751 45.5997 74.1135 46.3855 74.1135 47.1893L78.1135 47.1893C78.1135 45.5943 77.6405 44.0352 76.7543 42.709L73.4285 44.9314ZM74.1135 47.1867C74.1121 48.2646 73.6833 49.298 72.9211 50.0603L75.7499 52.8885C77.2607 51.3773 78.1107 49.3288 78.1135 47.1919L74.1135 47.1867ZM72.9211 50.0603C72.159 50.8226 71.1257 51.2517 70.0477 51.2533L70.0539 55.2533C72.1907 55.25 74.2391 54.3996 75.7499 52.8885L72.9211 50.0603ZM70.0514 40.4533C68.7204 40.4529 67.4192 40.8472 66.3123 41.5862L68.5333 44.9129C68.9824 44.6131 69.5103 44.4532 70.0503 44.4533L70.0514 40.4533ZM66.3123 41.5862C65.2053 42.3252 64.3424 43.3758 63.8324 44.6052L67.5272 46.1378C67.7341 45.639 68.0842 45.2127 68.5333 44.9129L66.3123 41.5862ZM63.8324 44.6052C63.3225 45.8346 63.1885 47.1876 63.4474 48.4931L67.371 47.7151C67.2659 47.1854 67.3203 46.6365 67.5272 46.1378L63.8324 44.6052ZM63.4474 48.4931C63.7062 49.7987 64.3464 50.9981 65.2868 51.9399L68.1172 49.1135C67.7357 48.7314 67.476 48.2448 67.371 47.7151L63.4474 48.4931ZM65.2868 51.9399C66.2273 52.8817 67.4259 53.5235 68.731 53.7842L69.5146 49.8617C68.9851 49.756 68.4988 49.4956 68.1172 49.1135L65.2868 51.9399ZM68.731 53.7842C70.0362 54.045 71.3894 53.9129 72.6195 53.4047L71.0922 49.7077C70.5931 49.9139 70.0441 49.9675 69.5146 49.8617L68.731 53.7842ZM72.6195 53.4047C73.8496 52.8965 74.9014 52.0349 75.642 50.929L72.3184 48.7034C72.0179 49.152 71.5912 49.5016 71.0922 49.7077L72.6195 53.4047ZM75.642 50.929C76.3826 49.8232 76.7786 48.5225 76.7801 47.1916L72.7801 47.1871C72.7795 47.727 72.6189 48.2547 72.3184 48.7034L75.642 50.929ZM76.7801 47.1876C76.7786 45.4037 76.0696 43.6933 74.8086 42.4316L71.9793 45.2592C72.4915 45.7717 72.7795 46.4664 72.7801 47.191L76.7801 47.1876ZM74.8086 42.4316C73.5475 41.1698 71.8375 40.4598 70.0536 40.4573L70.048 44.4573C70.7726 44.4583 71.4671 44.7467 71.9793 45.2592L74.8086 42.4316ZM72.0508 42.4573V42.4533H68.0508V42.4573H72.0508Z" fill="#22BB9F" mask="url(#path-38-inside-9)"/>
<mask id="path-40-inside-10" fill="white">
<path d="M73.1015 42.8493C71.9021 42.8493 70.7297 42.4937 69.7325 41.8274C68.7353 41.1611 67.958 40.214 67.4991 39.1059C67.0401 37.9979 66.92 36.7786 67.154 35.6023C67.388 34.426 67.9655 33.3455 68.8136 32.4975C69.6616 31.6494 70.7422 31.0718 71.9185 30.8379C73.0948 30.6039 74.314 30.724 75.4221 31.1829C76.5301 31.6419 77.4772 32.4191 78.1435 33.4164C78.8098 34.4136 79.1655 35.586 79.1655 36.7853C79.1637 38.3931 78.5243 39.9345 77.3874 41.0713C76.2506 42.2081 74.7092 42.8476 73.1015 42.8493V42.8493ZM73.1015 32.0493C72.1658 32.0493 71.2512 32.3268 70.4733 32.8466C69.6953 33.3664 69.089 34.1052 68.7309 34.9697C68.3729 35.8341 68.2792 36.7853 68.4617 37.7029C68.6442 38.6206 69.0948 39.4635 69.7564 40.1251C70.418 40.7867 71.2609 41.2373 72.1786 41.4198C73.0962 41.6023 74.0474 41.5086 74.9118 41.1506C75.7762 40.7925 76.5151 40.1862 77.0349 39.4082C77.5547 38.6303 77.8321 37.7157 77.8321 36.78C77.8293 35.5267 77.3298 34.3256 76.4431 33.4399C75.5564 32.5542 74.3548 32.0561 73.1015 32.0547V32.0493Z"/>
</mask>
<path d="M79.1655 36.7853L81.1655 36.7875V36.7853L79.1655 36.7853ZM73.1015 32.0493H75.1015V30.0493L73.1015 30.0493L73.1015 32.0493ZM77.8321 36.78L79.8321 36.78L79.8321 36.7755L77.8321 36.78ZM73.1015 32.0547H71.1015V34.0524L73.0992 34.0547L73.1015 32.0547ZM73.1015 40.8493C72.2977 40.8493 71.512 40.611 70.8436 40.1644L68.6214 43.4903C69.9475 44.3764 71.5066 44.8493 73.1015 44.8493V40.8493ZM70.8436 40.1644C70.1753 39.7179 69.6544 39.0832 69.3468 38.3406L65.6513 39.8713C66.2617 41.3448 67.2952 42.6042 68.6214 43.4903L70.8436 40.1644ZM69.3468 38.3406C69.0392 37.598 68.9588 36.7808 69.1156 35.9925L65.1924 35.2121C64.8813 36.7764 65.041 38.3978 65.6513 39.8713L69.3468 38.3406ZM69.1156 35.9925C69.2724 35.2042 69.6594 34.48 70.2278 33.9117L67.3994 31.0832C66.2716 32.211 65.5036 33.6479 65.1924 35.2121L69.1156 35.9925ZM70.2278 33.9117C70.7962 33.3433 71.5203 32.9562 72.3086 32.7994L71.5283 28.8763C69.964 29.1874 68.5271 29.9555 67.3994 31.0832L70.2278 33.9117ZM72.3086 32.7994C73.097 32.6426 73.9141 32.7231 74.6567 33.0307L76.1874 29.3352C74.7139 28.7248 73.0925 28.5651 71.5283 28.8763L72.3086 32.7994ZM74.6567 33.0307C75.3993 33.3383 76.034 33.8592 76.4806 34.5275L79.8064 32.3052C78.9204 30.9791 77.6609 29.9455 76.1874 29.3352L74.6567 33.0307ZM76.4806 34.5275C76.9271 35.1958 77.1655 35.9816 77.1655 36.7853L81.1655 36.7853C81.1655 35.1904 80.6925 33.6313 79.8064 32.3052L76.4806 34.5275ZM77.1655 36.7832C77.1643 37.8612 76.7355 38.8948 75.9732 39.6571L78.8016 42.4855C80.313 40.9741 81.1631 38.9249 81.1655 36.7875L77.1655 36.7832ZM75.9732 39.6571C75.2109 40.4194 74.1773 40.8482 73.0993 40.8494L73.1037 44.8493C75.2411 44.847 77.2903 43.9969 78.8016 42.4855L75.9732 39.6571ZM73.1015 30.0493C71.7703 30.0493 70.469 30.4441 69.3621 31.1837L71.5844 34.5095C72.0335 34.2095 72.5614 34.0493 73.1015 34.0493L73.1015 30.0493ZM69.3621 31.1837C68.2553 31.9232 67.3926 32.9744 66.8832 34.2043L70.5787 35.735C70.7853 35.2361 71.1353 34.8096 71.5844 34.5095L69.3621 31.1837ZM66.8832 34.2043C66.3737 35.4342 66.2404 36.7875 66.5001 38.0931L70.4233 37.3127C70.3179 36.783 70.372 36.234 70.5787 35.735L66.8832 34.2043ZM66.5001 38.0931C66.7598 39.3987 67.4009 40.598 68.3422 41.5393L71.1706 38.7109C70.7887 38.329 70.5286 37.8424 70.4233 37.3127L66.5001 38.0931ZM68.3422 41.5393C69.2835 42.4806 70.4828 43.1216 71.7884 43.3814L72.5687 39.4582C72.0391 39.3529 71.5525 39.0928 71.1706 38.7109L68.3422 41.5393ZM71.7884 43.3814C73.094 43.6411 74.4473 43.5078 75.6772 42.9983L74.1465 39.3028C73.6475 39.5095 73.0984 39.5636 72.5687 39.4582L71.7884 43.3814ZM75.6772 42.9983C76.9071 42.4889 77.9582 41.6262 78.6978 40.5194L75.3719 38.2971C75.0719 38.7462 74.6454 39.0961 74.1465 39.3028L75.6772 42.9983ZM78.6978 40.5194C79.4374 39.4125 79.8321 38.1112 79.8321 36.78L75.8321 36.78C75.8321 37.3201 75.672 37.848 75.3719 38.2971L78.6978 40.5194ZM79.8321 36.7755C79.8281 34.993 79.1177 33.2847 77.8565 32.0249L75.0297 34.8549C75.542 35.3666 75.8305 36.0605 75.8321 36.7845L79.8321 36.7755ZM77.8565 32.0249C76.5954 30.7652 74.8863 30.0567 73.1037 30.0547L73.0992 34.0547C73.8233 34.0555 74.5175 34.3433 75.0297 34.8549L77.8565 32.0249ZM75.1015 32.0547V32.0493H71.1015V32.0547H75.1015Z" fill="#22BB9F" mask="url(#path-40-inside-10)"/>
<mask id="path-42-inside-11" fill="white">
<path d="M72.5454 32.0547C71.3461 32.0547 70.1737 31.699 69.1765 31.0327C68.1792 30.3664 67.402 29.4193 66.943 28.3113C66.4841 27.2032 66.364 25.9839 66.598 24.8076C66.8319 23.6313 67.4095 22.5508 68.2576 21.7028C69.1056 20.8547 70.1861 20.2772 71.3624 20.0432C72.5387 19.8092 73.758 19.9293 74.866 20.3883C75.9741 20.8472 76.9212 21.6245 77.5875 22.6217C78.2538 23.6189 78.6094 24.7913 78.6094 25.9907C78.6073 27.5983 77.9678 29.1395 76.831 30.2762C75.6942 31.413 74.1531 32.0526 72.5454 32.0547ZM72.5454 21.2547C71.6098 21.2547 70.6952 21.5321 69.9172 22.0519C69.1393 22.5717 68.5329 23.3106 68.1749 24.175C67.8168 25.0394 67.7231 25.9906 67.9057 26.9082C68.0882 27.8259 68.5388 28.6688 69.2004 29.3304C69.862 29.992 70.7049 30.4426 71.6225 30.6251C72.5402 30.8076 73.4914 30.714 74.3558 30.3559C75.2202 29.9978 75.959 29.3915 76.4789 28.6136C76.9987 27.8356 77.2761 26.921 77.2761 25.9853C77.2736 24.7318 76.7743 23.5304 75.8876 22.6444C75.0008 21.7584 73.799 21.2601 72.5454 21.2587V21.2547Z"/>
</mask>
<path d="M72.5454 32.0547L72.5454 34.0547L72.5481 34.0547L72.5454 32.0547ZM78.6094 25.9907L80.6094 25.9933V25.9907L78.6094 25.9907ZM72.5454 21.2547H74.5454V19.2547H72.5454V21.2547ZM77.2761 25.9853L79.2761 25.9853L79.2761 25.9814L77.2761 25.9853ZM72.5454 21.2587H70.5454V23.2564L72.5432 23.2587L72.5454 21.2587ZM72.5454 30.0547C71.7417 30.0547 70.9559 29.8163 70.2876 29.3698L68.0653 32.6956C69.3914 33.5817 70.9505 34.0547 72.5454 34.0547V30.0547ZM70.2876 29.3698C69.6193 28.9232 69.0984 28.2885 68.7908 27.5459L65.0953 29.0766C65.7056 30.5501 66.7392 31.8096 68.0653 32.6956L70.2876 29.3698ZM68.7908 27.5459C68.4832 26.8033 68.4027 25.9862 68.5595 25.1978L64.6364 24.4175C64.3252 25.9817 64.4849 27.6031 65.0953 29.0766L68.7908 27.5459ZM68.5595 25.1978C68.7163 24.4095 69.1034 23.6853 69.6718 23.117L66.8433 20.2886C65.7156 21.4163 64.9475 22.8532 64.6364 24.4175L68.5595 25.1978ZM69.6718 23.117C70.2401 22.5486 70.9643 22.1616 71.7526 22.0048L70.9722 18.0816C69.408 18.3928 67.9711 19.1608 66.8433 20.2886L69.6718 23.117ZM71.7526 22.0048C72.5409 21.8479 73.3581 21.9284 74.1007 22.236L75.6314 18.5405C74.1579 17.9302 72.5365 17.7705 70.9722 18.0816L71.7526 22.0048ZM74.1007 22.236C74.8433 22.5436 75.478 23.0645 75.9245 23.7328L79.2504 21.5106C78.3643 20.1844 77.1049 19.1508 75.6314 18.5405L74.1007 22.236ZM75.9245 23.7328C76.3711 24.4012 76.6094 25.1869 76.6094 25.9907L80.6094 25.9907C80.6094 24.3958 80.1365 22.8367 79.2504 21.5106L75.9245 23.7328ZM76.6094 25.988C76.608 27.0661 76.1791 28.0997 75.4168 28.862L78.2452 31.6904C79.7564 30.1793 80.6066 28.1304 80.6094 25.9933L76.6094 25.988ZM75.4168 28.862C74.6545 29.6243 73.6209 30.0533 72.5428 30.0547L72.5481 34.0547C74.6852 34.0519 76.734 33.2016 78.2452 31.6904L75.4168 28.862ZM72.5454 19.2547C71.2142 19.2547 69.9129 19.6494 68.8061 20.389L71.0284 23.7149C71.4774 23.4148 72.0054 23.2547 72.5454 23.2547V19.2547ZM68.8061 20.389C67.6992 21.1286 66.8366 22.1797 66.3271 23.4096L70.0226 24.9404C70.2293 24.4414 70.5793 24.0149 71.0284 23.7149L68.8061 20.389ZM66.3271 23.4096C65.8177 24.6395 65.6844 25.9928 65.9441 27.2984L69.8673 26.5181C69.7619 25.9884 69.816 25.4393 70.0226 24.9404L66.3271 23.4096ZM65.9441 27.2984C66.2038 28.604 66.8448 29.8033 67.7861 30.7446L70.6146 27.9162C70.2327 27.5343 69.9726 27.0478 69.8673 26.5181L65.9441 27.2984ZM67.7861 30.7446C68.7274 31.6859 69.9267 32.327 71.2324 32.5867L72.0127 28.6635C71.483 28.5582 70.9965 28.2981 70.6146 27.9162L67.7861 30.7446ZM71.2324 32.5867C72.538 32.8464 73.8913 32.7131 75.1212 32.2037L73.5904 28.5081C73.0915 28.7148 72.5424 28.7689 72.0127 28.6635L71.2324 32.5867ZM75.1212 32.2037C76.351 31.6942 77.4022 30.8315 78.1418 29.7247L74.8159 27.5024C74.5159 27.9515 74.0894 28.3015 73.5904 28.5081L75.1212 32.2037ZM78.1418 29.7247C78.8814 28.6178 79.2761 27.3165 79.2761 25.9853L75.2761 25.9853C75.2761 26.5254 75.116 27.0534 74.8159 27.5024L78.1418 29.7247ZM79.2761 25.9814C79.2726 24.1985 78.5624 22.4897 77.3012 21.2296L74.4739 24.0592C74.9862 24.571 75.2747 25.2651 75.2761 25.9893L79.2761 25.9814ZM77.3012 21.2296C76.04 19.9694 74.3306 19.2607 72.5477 19.2587L72.5432 23.2587C73.2674 23.2595 73.9617 23.5474 74.4739 24.0592L77.3012 21.2296ZM74.5454 21.2587V21.2547H70.5454V21.2587H74.5454Z" fill="#22BB9F" mask="url(#path-42-inside-11)"/>
<mask id="path-44-inside-12" fill="white">
<path d="M68.5136 21.932C67.3143 21.932 66.1419 21.5764 65.1447 20.9101C64.1476 20.2439 63.3703 19.2969 62.9113 18.1889C62.4523 17.0809 62.3321 15.8617 62.566 14.6855C62.7999 13.5092 63.3773 12.4287 64.2252 11.5806C65.0732 10.7325 66.1535 10.1548 67.3297 9.9207C68.506 9.68657 69.7252 9.80647 70.8333 10.2652C71.9413 10.724 72.8885 11.501 73.555 12.4981C74.2215 13.4951 74.5773 14.6674 74.5776 15.8667C74.5758 17.4745 73.9364 19.0161 72.7996 20.1531C71.6628 21.2902 70.1214 21.9299 68.5136 21.932V21.932ZM68.5136 11.132C67.5781 11.132 66.6637 11.4094 65.8858 11.929C65.1079 12.4486 64.5016 13.1872 64.1434 14.0514C63.7852 14.9156 63.6913 15.8666 63.8735 16.7841C64.0557 17.7017 64.5059 18.5446 65.1671 19.2064C65.8283 19.8681 66.6708 20.319 67.5882 20.502C68.5056 20.685 69.4567 20.5918 70.3212 20.2344C71.1857 19.877 71.9248 19.2712 72.4451 18.4938C72.9653 17.7164 73.2435 16.8022 73.2443 15.8667C73.2425 14.6127 72.7435 13.4106 71.8566 12.524C70.9698 11.6374 69.7676 11.1388 68.5136 11.1374V11.132Z"/>
</mask>
<path d="M74.5776 15.8667L76.5776 15.8689L76.5776 15.8662L74.5776 15.8667ZM68.5136 11.132H70.5136V9.13202L68.5136 9.13202L68.5136 11.132ZM73.2443 15.8667L75.2443 15.8684L75.2443 15.8639L73.2443 15.8667ZM68.5136 11.1374H66.5136V13.1351L68.5113 13.1374L68.5136 11.1374ZM68.5136 19.932C67.7098 19.932 66.9241 19.6937 66.2558 19.2472L64.0337 22.5731C65.3597 23.4591 66.9188 23.932 68.5136 23.932L68.5136 19.932ZM66.2558 19.2472C65.5875 18.8007 65.0666 18.166 64.759 17.4235L61.0636 18.9544C61.674 20.4278 62.7076 21.6871 64.0337 22.5731L66.2558 19.2472ZM64.759 17.4235C64.4514 16.6809 64.3709 15.8638 64.5276 15.0755L60.6044 14.2955C60.2934 15.8597 60.4532 17.481 61.0636 18.9544L64.759 17.4235ZM64.5276 15.0755C64.6843 14.2872 65.0713 13.5631 65.6396 12.9947L62.8109 10.1665C61.6833 11.2944 60.9154 12.7312 60.6044 14.2955L64.5276 15.0755ZM65.6396 12.9947C66.2079 12.4263 66.9319 12.0391 67.7202 11.8822L66.9393 7.95918C65.3751 8.27053 63.9384 9.0387 62.8109 10.1665L65.6396 12.9947ZM67.7202 11.8822C68.5085 11.7253 69.3256 11.8057 70.0682 12.1131L71.5983 8.41735C70.1248 7.80727 68.5034 7.64783 66.9393 7.95918L67.7202 11.8822ZM70.0682 12.1131C70.8108 12.4206 71.4456 12.9413 71.8922 13.6095L75.2177 11.3866C74.3314 10.0607 73.0719 9.02742 71.5983 8.41735L70.0682 12.1131ZM71.8922 13.6095C72.3389 14.2777 72.5774 15.0634 72.5776 15.8671L76.5776 15.8662C76.5772 14.2714 76.104 12.7125 75.2177 11.3866L71.8922 13.6095ZM72.5776 15.8645C72.5764 16.9427 72.1476 17.9765 71.3852 18.739L74.214 21.5672C75.7252 20.0556 76.5752 18.0063 76.5776 15.8689L72.5776 15.8645ZM71.3852 18.739C70.6229 19.5016 69.5892 19.9306 68.511 19.932L68.5162 23.932C70.6537 23.9292 72.7027 23.0787 74.214 21.5672L71.3852 18.739ZM68.5136 9.13202C67.1826 9.13202 65.8816 9.52662 64.7748 10.2659L66.9968 13.5921C67.4458 13.2921 67.9736 13.132 68.5136 13.132L68.5136 9.13202ZM64.7748 10.2659C63.6681 11.0053 62.8054 12.0561 62.2958 13.2857L65.991 14.8172C66.1977 14.3183 66.5477 13.892 66.9968 13.5921L64.7748 10.2659ZM62.2958 13.2857C61.7862 14.5152 61.6526 15.8682 61.9118 17.1737L65.8352 16.3946C65.73 15.8649 65.7843 15.316 65.991 14.8172L62.2958 13.2857ZM61.9118 17.1737C62.1711 18.4792 62.8116 19.6785 63.7523 20.62L66.5819 17.7927C66.2002 17.4108 65.9404 16.9242 65.8352 16.3946L61.9118 17.1737ZM63.7523 20.62C64.693 21.5615 65.8918 22.203 67.197 22.4633L67.9794 18.5406C67.4499 18.435 66.9636 18.1747 66.5819 17.7927L63.7523 20.62ZM67.197 22.4633C68.5023 22.7237 69.8554 22.5912 71.0854 22.0826L69.557 18.3862C69.058 18.5925 68.509 18.6462 67.9794 18.5406L67.197 22.4633ZM71.0854 22.0826C72.3153 21.5741 73.3669 20.7123 74.1072 19.6062L70.7829 17.3814C70.4826 17.8302 70.056 18.1798 69.557 18.3862L71.0854 22.0826ZM74.1072 19.6062C74.8474 18.5001 75.2431 17.1993 75.2443 15.8684L71.2443 15.865C71.2438 16.405 71.0833 16.9327 70.7829 17.3814L74.1072 19.6062ZM75.2443 15.8639C75.2417 14.0803 74.532 12.3706 73.2707 11.1096L70.4426 13.9384C70.955 14.4506 71.2432 15.1451 71.2443 15.8695L75.2443 15.8639ZM73.2707 11.1096C72.0093 9.84863 70.2994 9.13936 68.5158 9.13735L68.5113 13.1374C69.2358 13.1382 69.9303 13.4263 70.4426 13.9384L73.2707 11.1096ZM70.5136 11.1374V11.132H66.5136V11.1374H70.5136Z" fill="#22BB9F" mask="url(#path-44-inside-12)"/>
<mask id="path-46-inside-13" fill="white">
<path d="M59.8216 15.4067C58.6222 15.4067 57.4498 15.051 56.4526 14.3847C55.4554 13.7184 54.6781 12.7713 54.2192 11.6633C53.7602 10.5552 53.6401 9.33596 53.8741 8.15966C54.1081 6.98336 54.6856 5.90286 55.5337 5.05479C56.3817 4.20673 57.4622 3.62919 58.6385 3.39521C59.8148 3.16123 61.0341 3.28131 62.1422 3.74028C63.2502 4.19925 64.1973 4.97649 64.8636 5.97371C65.5299 6.97093 65.8856 8.14334 65.8856 9.34269C65.8838 10.9504 65.2444 12.4918 64.1075 13.6286C62.9707 14.7655 61.4293 15.4049 59.8216 15.4067V15.4067ZM59.8216 4.60669C58.8859 4.60669 57.9713 4.88414 57.1934 5.40395C56.4154 5.92376 55.8091 6.66259 55.451 7.52701C55.093 8.39143 54.9993 9.34261 55.1818 10.2603C55.3643 11.1779 55.8149 12.0208 56.4765 12.6824C57.1381 13.344 57.981 13.7946 58.8987 13.9771C59.8163 14.1597 60.7675 14.066 61.6319 13.7079C62.4963 13.3499 63.2352 12.7435 63.755 11.9656C64.2748 11.1876 64.5522 10.273 64.5522 9.33736C64.5498 8.08383 64.0504 6.88242 63.1637 5.99641C62.2769 5.11041 61.0751 4.6121 59.8216 4.61069V4.60669Z"/>
</mask>
<path d="M65.8856 9.34269L67.8856 9.34489V9.34269L65.8856 9.34269ZM59.8216 4.60669H61.8216V2.60669L59.8216 2.60669V4.60669ZM64.5522 9.33736L66.5522 9.33736L66.5522 9.33342L64.5522 9.33736ZM59.8216 4.61069H57.8216V6.60844L59.8193 6.61069L59.8216 4.61069ZM59.8216 13.4067C59.0178 13.4067 58.2321 13.1683 57.5637 12.7218L55.3415 16.0477C56.6676 16.9337 58.2267 17.4067 59.8216 17.4067V13.4067ZM57.5637 12.7218C56.8954 12.2752 56.3745 11.6405 56.0669 10.8979L52.3714 12.4286C52.9817 13.9022 54.0153 15.1616 55.3415 16.0477L57.5637 12.7218ZM56.0669 10.8979C55.7593 10.1553 55.6788 9.33819 55.8357 8.54984L51.9125 7.76948C51.6014 9.33374 51.7611 10.9551 52.3714 12.4286L56.0669 10.8979ZM55.8357 8.54984C55.9925 7.7615 56.3795 7.03737 56.9479 6.46901L54.1195 3.64058C52.9917 4.76835 52.2237 6.20522 51.9125 7.76948L55.8357 8.54984ZM56.9479 6.46901C57.5163 5.90065 58.2404 5.51359 59.0287 5.35678L58.2484 1.43364C56.6841 1.74479 55.2472 2.51281 54.1195 3.64058L56.9479 6.46901ZM59.0287 5.35678C59.8171 5.19997 60.6342 5.28045 61.3768 5.58804L62.9075 1.89252C61.434 1.28218 59.8126 1.12249 58.2484 1.43364L59.0287 5.35678ZM61.3768 5.58804C62.1194 5.89564 62.7541 6.41653 63.2007 7.08485L66.5265 4.86257C65.6405 3.53645 64.381 2.50287 62.9075 1.89252L61.3768 5.58804ZM63.2007 7.08485C63.6472 7.75317 63.8856 8.53891 63.8856 9.34269L67.8856 9.34269C67.8856 7.74778 67.4126 6.18869 66.5265 4.86257L63.2007 7.08485ZM63.8856 9.34049C63.8844 10.4186 63.4556 11.4521 62.6933 12.2144L65.5217 15.0429C67.0331 13.5315 67.8832 11.4823 67.8856 9.34489L63.8856 9.34049ZM62.6933 12.2144C61.931 12.9767 60.8974 13.4055 59.8194 13.4067L59.8238 17.4067C61.9612 17.4043 64.0104 16.5542 65.5217 15.0429L62.6933 12.2144ZM59.8216 2.60669C58.4904 2.60669 57.1891 3.00144 56.0822 3.74101L58.3045 7.06689C58.7535 6.76684 59.2815 6.60669 59.8216 6.60669V2.60669ZM56.0822 3.74101C54.9754 4.48059 54.1127 5.53178 53.6032 6.76164L57.2988 8.29238C57.5054 7.79341 57.8554 7.36694 58.3045 7.06689L56.0822 3.74101ZM53.6032 6.76164C53.0938 7.99151 52.9605 9.34483 53.2202 10.6504L57.1434 9.87008C57.038 9.34038 57.0921 8.79134 57.2988 8.29238L53.6032 6.76164ZM53.2202 10.6504C53.4799 11.9561 54.121 13.1554 55.0623 14.0967L57.8907 11.2682C57.5088 10.8863 57.2487 10.3998 57.1434 9.87008L53.2202 10.6504ZM55.0623 14.0967C56.0036 15.038 57.2029 15.679 58.5085 15.9387L59.2888 12.0156C58.7591 11.9102 58.2726 11.6501 57.8907 11.2682L55.0623 14.0967ZM58.5085 15.9387C59.8141 16.1984 61.1674 16.0651 62.3973 15.5557L60.8666 11.8602C60.3676 12.0668 59.8185 12.1209 59.2888 12.0156L58.5085 15.9387ZM62.3973 15.5557C63.6272 15.0463 64.6783 14.1836 65.4179 13.0767L62.092 10.8544C61.792 11.3035 61.3655 11.6535 60.8666 11.8602L62.3973 15.5557ZM65.4179 13.0767C66.1575 11.9699 66.5522 10.6686 66.5522 9.33736L62.5522 9.33736C62.5522 9.87743 62.3921 10.4054 62.092 10.8544L65.4179 13.0767ZM66.5522 9.33342C66.5487 7.55053 65.8385 5.84176 64.5773 4.5816L61.7501 7.41122C62.2624 7.92307 62.5508 8.61713 62.5522 9.3413L66.5522 9.33342ZM64.5773 4.5816C63.3161 3.32144 61.6067 2.6127 59.8238 2.61069L59.8193 6.61069C60.5435 6.6115 61.2378 6.89938 61.7501 7.41122L64.5773 4.5816ZM61.8216 4.61069V4.60669H57.8216V4.61069H61.8216Z" fill="#22BB9F" mask="url(#path-46-inside-13)"/>
</svg>
