<svg width="37" height="52" viewBox="0 0 37 52" fill="none" xmlns="http://www.w3.org/2000/svg">
<path d="M6.096 47H7.776V38.624H6.096V42.068H2.508V38.624H0.828V47H2.508V43.436H6.096V47ZM15.8496 43.676C15.8496 41.576 14.3496 40.244 12.4296 40.244C10.5096 40.244 9.00956 41.576 9.00956 43.676C9.00956 45.764 10.4616 47.108 12.3816 47.108C14.3136 47.108 15.8496 45.764 15.8496 43.676ZM10.7136 43.676C10.7136 42.344 11.5176 41.708 12.4056 41.708C13.2936 41.708 14.1216 42.344 14.1216 43.676C14.1216 44.996 13.2696 45.644 12.3816 45.644C11.4816 45.644 10.7136 44.996 10.7136 43.676ZM26.3819 47H28.0619V43.1C28.0619 41.264 26.9339 40.256 25.3379 40.256C24.3659 40.256 23.4899 40.772 23.0579 41.528C22.6019 40.7 21.7499 40.256 20.7179 40.256C19.8899 40.256 19.1819 40.604 18.7619 41.156V40.352H17.0819V47H18.7619V43.328C18.7619 42.272 19.3499 41.72 20.2619 41.72C21.1499 41.72 21.7379 42.272 21.7379 43.328V47H23.4179V43.328C23.4179 42.272 24.0059 41.72 24.9059 41.72C25.7939 41.72 26.3819 42.272 26.3819 43.328V47ZM32.5121 41.624C33.3761 41.624 34.0721 42.176 34.0961 43.052H30.9401C31.0721 42.14 31.7081 41.624 32.5121 41.624ZM35.6681 44.912H33.8561C33.6401 45.356 33.2441 45.716 32.5241 45.716C31.6841 45.716 31.0121 45.164 30.9281 44.18H35.7881C35.8241 43.964 35.8361 43.748 35.8361 43.532C35.8361 41.552 34.4801 40.244 32.5601 40.244C30.5921 40.244 29.2241 41.576 29.2241 43.676C29.2241 45.764 30.6281 47.108 32.5601 47.108C34.2041 47.108 35.3081 46.136 35.6681 44.912Z" fill="#22BB9F"/>
<path d="M34.1406 13.9199C34.1397 13.9191 34.1389 13.9181 34.1382 13.9174L21.0834 0.863124C20.527 0.306427 19.7871 0 19.0002 0C18.2132 0 17.4734 0.306427 16.9167 0.863124L3.86877 13.9108C3.86438 13.9152 3.85974 13.9199 3.85559 13.9243C2.71289 15.0735 2.71485 16.9382 3.8612 18.0846C4.38494 18.6086 5.07641 18.9118 5.81599 18.9438C5.84627 18.9467 5.87654 18.9482 5.90707 18.9482H6.42714V28.5551C6.42714 30.4564 7.97417 32.0032 9.87548 32.0032H14.9829C15.5008 32.0032 15.9205 31.5833 15.9205 31.0656V23.5336C15.9205 22.6661 16.6264 21.9605 17.4939 21.9605H20.5064C21.374 21.9605 22.0796 22.6661 22.0796 23.5336V31.0656C22.0796 31.5833 22.4993 32.0032 23.0172 32.0032H28.1246C30.0262 32.0032 31.573 30.4564 31.573 28.5551V18.9482H32.0555C32.8422 18.9482 33.582 18.6418 34.1389 18.0848C35.2865 16.9368 35.287 15.0687 34.1406 13.9199V13.9199ZM32.8129 16.759C32.6104 16.9614 32.3414 17.073 32.0555 17.073H30.6354C30.1175 17.073 29.6978 17.4927 29.6978 18.0106V28.5551C29.6978 29.4224 28.9922 30.128 28.1246 30.128H23.9548V23.5336C23.9548 21.6323 22.408 20.0853 20.5064 20.0853H17.4939C15.5924 20.0853 14.0453 21.6323 14.0453 23.5336V30.128H9.87548C9.00821 30.128 8.30233 29.4224 8.30233 28.5551V18.0106C8.30233 17.4927 7.88261 17.073 7.36473 17.073H5.96908C5.95443 17.072 5.94003 17.0713 5.92513 17.0711C5.64581 17.0662 5.38382 16.9553 5.18751 16.7588C4.76999 16.3412 4.76999 15.6617 5.18751 15.244C5.18775 15.244 5.18775 15.2437 5.188 15.2435L5.18873 15.2427L18.243 2.18894C18.4452 1.98653 18.714 1.87519 19.0002 1.87519C19.2861 1.87519 19.5549 1.98653 19.7573 2.18894L32.8087 15.2401C32.8107 15.242 32.8129 15.244 32.8148 15.2459C33.2301 15.6642 33.2294 16.3422 32.8129 16.759V16.759Z" fill="#22BB9F"/>
<path d="M4.14294 14.8586L19.0016 1.14294L33.2887 14.8586V17.716L30.4313 19.4305V29.1457L28.1453 30.8602H23.5734L22.4305 22.2879L21.2875 21.1449H17.2871L15.0012 22.2879L14.4297 30.8602H9.85779L7.00037 29.1457V17.716H4.14294V14.8586Z" fill="#22BB9F"/>
</svg>
