<svg width="44" height="52" viewBox="0 0 44 52" fill="none" xmlns="http://www.w3.org/2000/svg">
<path d="M6.312 38.612V44.372L2.508 38.612H0.828V47H2.508V41.252L6.312 47H7.992V38.612H6.312ZM9.22022 43.652C9.22022 45.728 10.5642 47.108 12.2442 47.108C13.3002 47.108 14.0562 46.604 14.4522 46.028V47H16.1442V40.352H14.4522V41.3C14.0562 40.748 13.3242 40.244 12.2562 40.244C10.5642 40.244 9.22022 41.576 9.22022 43.652ZM14.4522 43.676C14.4522 44.936 13.6122 45.632 12.6882 45.632C11.7882 45.632 10.9362 44.912 10.9362 43.652C10.9362 42.392 11.7882 41.72 12.6882 41.72C13.6122 41.72 14.4522 42.416 14.4522 43.676ZM27.085 47H28.765V43.1C28.765 41.264 27.637 40.256 26.041 40.256C25.069 40.256 24.193 40.772 23.761 41.528C23.305 40.7 22.453 40.256 21.421 40.256C20.593 40.256 19.885 40.604 19.465 41.156V40.352H17.785V47H19.465V43.328C19.465 42.272 20.053 41.72 20.965 41.72C21.853 41.72 22.441 42.272 22.441 43.328V47H24.121V43.328C24.121 42.272 24.709 41.72 25.609 41.72C26.497 41.72 27.085 42.272 27.085 43.328V47ZM33.2153 41.624C34.0793 41.624 34.7753 42.176 34.7993 43.052H31.6433C31.7753 42.14 32.4113 41.624 33.2153 41.624ZM36.3713 44.912H34.5593C34.3433 45.356 33.9473 45.716 33.2273 45.716C32.3873 45.716 31.7153 45.164 31.6313 44.18H36.4913C36.5273 43.964 36.5393 43.748 36.5393 43.532C36.5393 41.552 35.1833 40.244 33.2633 40.244C31.2952 40.244 29.9272 41.576 29.9272 43.676C29.9272 45.764 31.3313 47.108 33.2633 47.108C34.9073 47.108 36.0113 46.136 36.3713 44.912ZM42.9255 45.104C42.8775 42.668 39.1935 43.424 39.1935 42.212C39.1935 41.828 39.5175 41.576 40.1415 41.576C40.8015 41.576 41.2095 41.924 41.2575 42.44H42.8655C42.7695 41.12 41.7975 40.244 40.1895 40.244C38.5455 40.244 37.5615 41.132 37.5615 42.236C37.5615 44.672 41.3175 43.916 41.3175 45.104C41.3175 45.488 40.9575 45.788 40.2975 45.788C39.6255 45.788 39.1575 45.404 39.0975 44.9H37.4055C37.4775 46.136 38.6415 47.108 40.3095 47.108C41.9295 47.108 42.9255 46.244 42.9255 45.104Z" fill="#22BB9F"/>
<path d="M7.14288 10.5289V29.4711L9.47342 30.8572H34.5266L36.8572 29.4711V10.5289L34.5266 9.14288H9.47342L7.14288 10.5289Z" fill="#22BB9F"/>
<path d="M33.875 2.5H31V1C31 0.44775 30.5523 0 30 0C29.4477 0 29 0.44775 29 1V2.5H15V1C15 0.44775 14.5523 0 14 0C13.4477 0 13 0.44775 13 1V2.5H10.125C7.85044 2.5 6 4.35044 6 6.625V27.875C6 30.1496 7.85044 32 10.125 32H33.875C36.1496 32 38 30.1496 38 27.875V6.625C38 4.35044 36.1496 2.5 33.875 2.5ZM10.125 4.5H13V5.5C13 6.05225 13.4477 6.5 14 6.5C14.5523 6.5 15 6.05225 15 5.5V4.5H29V5.5C29 6.05225 29.4477 6.5 30 6.5C30.5523 6.5 31 6.05225 31 5.5V4.5H33.875C35.0467 4.5 36 5.45325 36 6.625V9H8V6.625C8 5.45325 8.95325 4.5 10.125 4.5ZM33.875 30H10.125C8.95325 30 8 29.0467 8 27.875V11H36V27.875C36 29.0467 35.0467 30 33.875 30Z" fill="#22BB9F"/>
</svg>
