<svg width="42" height="52" viewBox="0 0 42 52" fill="none" xmlns="http://www.w3.org/2000/svg">
<path fill-rule="evenodd" clip-rule="evenodd" d="M26.6099 4.03768C27.5846 3.25502 29.0098 3.30853 29.9052 4.20387C30.8005 5.09922 30.854 6.52453 30.0714 7.49911C31.2679 7.14607 32.5588 7.74124 33.04 8.91441C33.29 9.5238 33.2868 10.1965 33.0308 10.8086C32.8109 11.3341 32.4276 11.7616 31.9319 12.0346C33.1678 12.165 34.1278 13.2111 34.1217 14.4834C34.1158 15.7495 33.1524 16.8099 31.9079 16.9538C32.9952 17.5478 33.4783 18.8855 32.9857 20.0634C32.514 21.2141 31.2061 21.8574 30.0017 21.5058C30.3185 21.9013 30.4942 22.3736 30.5297 22.8557C31.6761 22.5913 32.9244 22.8998 33.8098 23.7852L36.7953 26.7707C37.0701 27.0455 37.0679 27.4933 36.7904 27.7707L32.7708 31.7904C32.4933 32.0679 32.0456 32.0701 31.7707 31.7952L28.7853 28.8097C27.8998 27.9243 27.5914 26.6761 27.8558 25.5297C27.3737 25.4942 26.9015 25.3184 26.506 25.0017C26.8574 26.206 26.2143 27.5139 25.0636 27.9855C23.9353 28.4837 22.5178 27.989 21.9539 26.9078C21.81 28.1523 20.7497 29.1157 19.4836 29.1215C18.2111 29.1277 17.165 28.1675 17.0347 26.9315C16.4421 28.014 15.09 28.5253 13.9144 28.0399C12.7412 27.5587 12.1461 26.2676 12.4991 25.0712C10.1453 26.8642 7.24399 23.966 9.03764 21.6098C7.84126 21.9628 6.55024 21.3677 6.0691 20.1946C5.58801 19.0215 6.08411 17.6788 7.17727 17.0743C4.26125 16.6898 4.27929 12.569 7.20134 12.1551C6.11397 11.5613 5.63078 10.2234 6.12343 9.04547C6.57662 7.89875 7.93864 7.24281 9.10585 7.60117C7.33587 5.26472 10.2626 2.33512 12.6013 4.10604C12.2598 2.91294 12.8676 1.61606 14.0455 1.12342C15.2233 0.630822 16.5612 1.11396 17.1551 2.20123C17.5682 -0.718621 21.6886 -0.74075 22.0743 2.17716C22.6486 1.09055 24.0713 0.581856 25.1946 1.06914C26.3677 1.55033 26.9629 2.84129 26.6099 4.03768ZM24.6472 2.37842C24.3859 2.27129 24.0976 2.2727 23.8353 2.38233C23.5728 2.49216 23.368 2.69701 23.2585 2.95925C23.032 3.50066 23.2865 4.12112 23.8258 4.34235C24.365 4.56352 24.9878 4.30304 25.2145 3.76148C25.4409 3.22007 25.1864 2.5996 24.6472 2.37842ZM18.5527 2.46762C18.6182 1.05974 20.6231 1.05117 20.6742 2.45724C20.609 3.86512 18.6037 3.87384 18.5527 2.46762ZM14.5803 2.42743C14.0493 2.64577 13.7746 3.27317 13.9996 3.81618C14.5851 5.09049 16.4418 4.31518 15.9634 2.99475C15.7423 2.45552 15.1218 2.20099 14.5803 2.42743ZM11.7994 5.29212C11.3879 4.88057 10.715 4.88385 10.2994 5.29943C9.88381 5.71501 9.88053 6.38793 10.2921 6.79948C11.3232 7.74812 12.7482 6.32371 11.7994 5.29212ZM8.00426 9.00361C7.74202 9.11329 7.53717 9.31814 7.42744 9.58043C7.05988 10.4435 7.94423 11.3286 8.80654 10.9596C9.06887 10.8498 9.27367 10.645 9.3834 10.3828C9.49308 10.1204 9.49454 9.83216 9.38736 9.57093C9.28028 9.30969 9.07737 9.10688 8.81614 8.9997C8.55491 8.89252 8.26659 8.89393 8.00426 9.00361ZM7.46758 13.5528C6.88271 13.5556 6.40453 14.0338 6.40173 14.6186C6.39887 15.2036 6.87237 15.6771 7.45725 15.6742C8.04212 15.6714 8.5203 15.1932 8.5231 14.6083C8.526 14.0234 8.05245 13.5499 7.46758 13.5528ZM7.95921 18.2584C7.41785 18.4849 7.15726 19.1078 7.37843 19.6471C7.59961 20.1864 8.22003 20.4409 8.76149 20.2144C9.30295 19.988 9.56354 19.365 9.34231 18.8257C9.12114 18.2865 8.50072 18.032 7.95921 18.2584ZM10.2161 22.4003C9.80047 22.8158 9.79719 23.4888 10.2087 23.9003C10.6203 24.3119 11.2932 24.3086 11.7088 23.893C12.6676 22.8526 11.2569 21.4414 10.2161 22.4003ZM13.8947 25.3476C13.6682 25.889 13.9227 26.5095 14.462 26.7307C15.0012 26.9518 15.6241 26.6912 15.8507 26.1499C16.0771 25.6085 15.8226 24.9881 15.2833 24.7668C15.0221 24.6597 14.7338 24.6611 14.4715 24.7708C14.2093 24.8805 14.0044 25.0853 13.8947 25.3476ZM19.4904 27.7073C20.0753 27.7045 20.5535 27.2263 20.5563 26.6415C20.5592 26.0566 20.0857 25.5831 19.5007 25.5859C18.9159 25.5887 18.4377 26.0669 18.4349 26.6518C18.432 27.2367 18.9055 27.7102 19.4904 27.7073ZM24.5287 26.6817C25.0702 26.4551 25.3307 25.8322 25.1095 25.293C25.0023 25.0317 24.7995 24.8288 24.5382 24.7217C24.277 24.6146 23.9887 24.6159 23.7264 24.7256C23.4641 24.8354 23.2593 25.0402 23.1495 25.3025C22.9179 25.8259 23.1866 26.4808 23.7168 26.6856C23.9781 26.7927 24.2664 26.7914 24.5287 26.6817ZM28.763 20.6834C28.6203 20.5041 28.5018 20.3039 28.4124 20.0859C27.7698 18.5826 28.8514 16.8282 30.4439 16.6696C29.6819 16.2515 29.1671 15.4404 29.1716 14.5077C29.1762 13.575 29.699 12.7588 30.4651 12.3332C29.5983 12.2402 28.8102 11.691 28.4574 10.831C28.1047 9.97092 28.2774 9.01987 28.8252 8.33514C26.9641 8.89281 25.215 7.14342 25.7744 5.28177C25.0895 5.83046 24.1386 6.0046 23.278 5.65164C22.418 5.29882 21.8687 4.51079 21.7756 3.64393C21.3394 4.42422 20.5292 4.93042 19.6013 4.93749C18.6679 4.94199 17.8562 4.42639 17.4384 3.66352C17.3393 4.54806 16.7532 5.34343 15.9174 5.6874C15.0539 6.04857 14.1044 5.88514 13.4251 5.34395C13.9641 7.19764 12.2015 8.96331 10.3461 8.42574C10.9009 9.11374 11.0401 10.096 10.6874 10.9175C10.5593 11.2234 10.3758 11.496 10.1478 11.724C9.91986 11.9521 9.64737 12.1355 9.34134 12.2635C9.12239 12.3551 8.89565 12.4137 8.66687 12.4406C10.3565 13.3559 10.3557 15.8359 8.64389 16.7758C9.5107 16.8688 10.2987 17.4181 10.6514 18.2781C11.0044 19.1386 10.8303 20.0897 10.2816 20.7745C12.1411 20.2155 13.8916 21.9614 13.3357 23.8231C13.5163 23.6787 13.7177 23.5583 13.9366 23.4667C15.4462 22.8095 17.1901 23.874 17.3332 25.4651C18.2666 23.7604 20.7494 23.7463 21.6684 25.4421C21.6953 25.2133 21.7539 24.9866 21.8455 24.7677C22.1015 24.1557 22.5794 23.6776 23.1915 23.4217C24.0131 23.0689 24.9952 23.2081 25.6833 23.7629C25.1461 21.9097 26.9087 20.146 28.763 20.6834ZM30.293 20.1095C30.8323 20.3307 31.4551 20.0702 31.6816 19.5287C31.9081 18.9873 31.6536 18.3668 31.1144 18.1457C30.5713 17.9207 29.9439 18.1955 29.7256 18.7265C29.6159 18.9888 29.6145 19.2771 29.7216 19.5383C29.8288 19.7995 30.0317 20.0024 30.293 20.1095ZM30.5859 14.5008C30.6369 15.907 32.6421 15.8983 32.7073 14.4904C32.7102 13.9056 32.2367 13.4321 31.6518 13.4349C31.0669 13.4378 30.5887 13.916 30.5859 14.5008ZM31.7268 10.2738C31.8364 10.0115 31.8378 9.72323 31.7307 9.46205C31.5095 8.92272 30.889 8.66824 30.3477 8.89463C29.8166 9.11287 29.5418 9.74036 29.7668 10.2834C29.988 10.8226 30.6085 11.0771 31.15 10.8506C31.4121 10.741 31.617 10.5363 31.7268 10.2738ZM27.3929 6.71615C27.8045 7.1277 28.4774 7.12442 28.893 6.70884C29.3085 6.29326 29.3118 5.62033 28.9003 5.20878C27.8692 4.2601 26.4441 5.68456 27.3929 6.71615Z" fill="#22BB9F"/>
<path d="M0.384 39.98H2.616V47H4.296V39.98H6.528V38.624H0.384V39.98ZM7.32178 43.652C7.32178 45.728 8.66578 47.108 10.3458 47.108C11.4018 47.108 12.1578 46.604 12.5538 46.028V47H14.2458V40.352H12.5538V41.3C12.1578 40.748 11.4258 40.244 10.3578 40.244C8.66578 40.244 7.32178 41.576 7.32178 43.652ZM12.5538 43.676C12.5538 44.936 11.7138 45.632 10.7898 45.632C9.88978 45.632 9.03778 44.912 9.03778 43.652C9.03778 42.392 9.88978 41.72 10.7898 41.72C11.7138 41.72 12.5538 42.416 12.5538 43.676ZM21.0466 45.104C20.9986 42.668 17.3146 43.424 17.3146 42.212C17.3146 41.828 17.6386 41.576 18.2626 41.576C18.9226 41.576 19.3306 41.924 19.3786 42.44H20.9866C20.8906 41.12 19.9186 40.244 18.3106 40.244C16.6666 40.244 15.6826 41.132 15.6826 42.236C15.6826 44.672 19.4386 43.916 19.4386 45.104C19.4386 45.488 19.0786 45.788 18.4186 45.788C17.7466 45.788 17.2786 45.404 17.2186 44.9H15.5266C15.5986 46.136 16.7626 47.108 18.4306 47.108C20.0506 47.108 21.0466 46.244 21.0466 45.104ZM24.1057 41.324V38.12H22.4257V47H24.1057V46.052C24.5137 46.628 25.2577 47.108 26.3017 47.108C28.0057 47.108 29.3377 45.728 29.3377 43.652C29.3377 41.576 28.0057 40.244 26.3017 40.244C25.2937 40.244 24.5137 40.712 24.1057 41.324ZM27.6217 43.652C27.6217 44.912 26.7697 45.632 25.8577 45.632C24.9577 45.632 24.1057 44.936 24.1057 43.676C24.1057 42.416 24.9577 41.72 25.8577 41.72C26.7697 41.72 27.6217 42.392 27.6217 43.652ZM30.5585 47H32.2385V40.352H30.5585V47ZM31.4105 39.56C31.9985 39.56 32.4425 39.128 32.4425 38.576C32.4425 38.024 31.9985 37.592 31.4105 37.592C30.8105 37.592 30.3785 38.024 30.3785 38.576C30.3785 39.128 30.8105 39.56 31.4105 39.56ZM33.8983 47H35.5783V43.328C35.5783 42.26 36.1663 41.684 37.0783 41.684C37.9663 41.684 38.5543 42.26 38.5543 43.328V47H40.2343V43.1C40.2343 41.264 39.1423 40.256 37.6423 40.256C36.7543 40.256 36.0103 40.616 35.5783 41.18V38.12H33.8983V47Z" fill="#22BB9F"/>
</svg>
